<svg fill="none" xmlns="http://www.w3.org/2000/svg" viewBox="0 0 180 52">
  <path d="M178.907 46.0031c0 2.7711-2.29 5.0158-5.123 5.0158H6.1298C3.2983 51.0189 1 48.7742 1 46.0031V6.0036C1 3.2337 3.2983.9812 6.1298.9812H173.783c2.834 0 5.123 2.2525 5.123 5.0224l.001 39.9995z" fill="#000"/>
  <path d="M173.243 1.0416c3.085 0 5.596 2.4489 5.596 5.4584v39c0 3.0095-2.511 5.4584-5.596 5.4584H6.6632c-3.085 0-5.5954-2.4489-5.5954-5.4584v-39c0-3.0095 2.5103-5.4584 5.5954-5.4584H173.243zm0-1.0416H6.6632C3.0001 0 0 2.9266 0 6.5v39C0 49.0734 3.0001 52 6.6632 52H173.243c3.663 0 6.663-2.9266 6.663-6.5v-39c0-3.5734-3-6.5-6.663-6.5z" fill="#A6A6A6"/>
  <path d="M40.1499 25.7191c-.0387-4.1899 3.5168-6.2283 3.6794-6.3232-2.0136-2.8639-5.1347-3.2552-6.2314-3.2864-2.6213-.2691-5.164 1.5301-6.4993 1.5301-1.362 0-3.4182-1.5041-5.6344-1.4599-2.8519.0429-5.5198 1.6536-6.983 4.1548-3.0198 5.0999-.7676 12.5944 2.1255 16.7167 1.4473 2.0189 3.1384 4.2731 5.3519 4.1938 2.1655-.0871 2.9745-1.3468 5.5878-1.3468 2.5893 0 3.3489 1.3468 5.6064 1.2961 2.3241-.0364 3.7873-2.028 5.184-4.0651 1.6724-2.314 2.3441-4.5929 2.3707-4.7099-.0546-.0182-4.5136-1.6783-4.5576-6.7002zM35.8854 13.3977c1.1648-1.4209 1.9617-3.354 1.7405-5.3157-1.6858.0728-3.7941 1.1375-5.0081 2.5272-1.0741 1.2246-2.0336 3.2318-1.7857 5.1194 1.8937.1378 3.838-.9321 5.0533-2.3309zM71.4895 40.9551h-3.0264l-1.6578-5.0816H61.043l-1.5792 5.0816h-2.9465l5.7091-17.3003h3.5261l5.737 17.3003zm-5.1839-7.2136l-1.4993-4.5175c-.1585-.4615-.4557-1.5483-.8942-3.2591h-.0533c-.1745.7358-.4557 1.8226-.8422 3.2591l-1.4726 4.5175h4.7616zM86.1711 34.5645c0 2.1216-.5877 3.7986-1.7631 5.0297-1.0528 1.0959-2.3601 1.6432-3.9206 1.6432-1.6844 0-2.8945-.5902-3.6314-1.7706h-.0533v6.5715h-2.8412V32.5872c0-1.3338-.036-2.7027-.1053-4.1067h2.4987l.1586 1.9773h.0533c.9475-1.4898 2.3854-2.2334 4.3151-2.2334 1.5085 0 2.7679.5811 3.7753 1.7446 1.0102 1.1648 1.5139 2.6962 1.5139 4.5955zm-2.8945.1014c0-1.2142-.2798-2.2152-.8422-3.003-.6144-.8216-1.4393-1.2324-2.4734-1.2324-.701 0-1.338.2288-1.907.6799-.5704.455-.9435 1.0491-1.1181 1.7849-.0879.3432-.1319.624-.1319.845v2.08c0 .9074.2852 1.6731.8556 2.2984.5703.6253 1.3113.9373 2.2228.9373 1.0701 0 1.903-.403 2.4987-1.2064.597-.8047.8955-1.8655.8955-3.1837zM100.88 34.5645c0 2.1216-.588 3.7986-1.7649 5.0297-1.0514 1.0959-2.3588 1.6432-3.9193 1.6432-1.6845 0-2.8945-.5902-3.6301-1.7706h-.0533v6.5715h-2.8412V32.5872c0-1.3338-.036-2.7027-.1053-4.1067h2.4987l.1586 1.9773h.0533c.9462-1.4898 2.3841-2.2334 4.3151-2.2334 1.5072 0 2.7666.5811 3.7767 1.7446 1.0057 1.1648 1.5117 2.6962 1.5117 4.5955zm-2.895.1014c0-1.2142-.2812-2.2152-.8435-3.003-.6144-.8216-1.4366-1.2324-2.4721-1.2324-.7023 0-1.338.2288-1.9083.6799-.5704.455-.9422 1.0491-1.1168 1.7849-.0866.3432-.1319.624-.1319.845v2.08c0 .9074.2852 1.6731.8529 2.2984.5703.624 1.3113.9373 2.2255.9373 1.0701 0 1.903-.403 2.4987-1.2064.597-.8047.8955-1.8655.8955-3.1837zM117.324 36.1037c0 1.4716-.523 2.6689-1.575 3.5932-1.155 1.0101-2.764 1.5145-4.831 1.5145-1.908 0-3.438-.3588-4.596-1.0777l.658-2.3101c1.248.7358 2.616 1.105 4.108 1.105 1.07 0 1.903-.2366 2.501-.7072.596-.4706.893-1.1024.893-1.8902 0-.702-.245-1.2935-.737-1.7732-.489-.4797-1.306-.9256-2.447-1.3377-3.105-1.1297-4.656-2.7846-4.656-4.9608 0-1.4222.544-2.5883 1.632-3.4957 1.085-.9087 2.532-1.3624 4.342-1.3624 1.614 0 2.955.2743 4.025.8216l-.711 2.2594c-.999-.5304-2.129-.7956-3.394-.7956-.999 0-1.78.2405-2.34.7189-.473.4277-.71.949-.71 1.5665 0 .6838.27 1.2493.814 1.6939.473.4108 1.333.8554 2.58 1.3351 1.526.5993 2.647 1.3 3.368 2.1034.718.8008 1.076 1.8031 1.076 2.9991zM126.718 30.5604h-3.132v6.0567c0 1.5405.552 2.3101 1.658 2.3101.508 0 .929-.0429 1.262-.1287l.079 2.1047c-.56.2041-1.297.3068-2.21.3068-1.122 0-1.999-.3341-2.632-1.001-.63-.6682-.947-1.7888-.947-3.3631v-6.2881h-1.866v-2.08h1.866v-2.2841l2.79-.8216v3.1057h3.132v2.0826zM140.848 34.6151c0 1.9175-.562 3.4918-1.684 4.7229-1.177 1.2675-2.739 1.8993-4.686 1.8993-1.876 0-3.37-.6071-4.484-1.8213-1.114-1.2142-1.671-2.7469-1.671-4.5942 0-1.9331.573-3.5165 1.723-4.7476 1.147-1.2324 2.696-1.8486 4.643-1.8486 1.876 0 3.386.6071 4.525 1.8226 1.09 1.1791 1.634 2.7014 1.634 4.5669zm-2.948.0897c0-1.1505-.252-2.1372-.762-2.9601-.596-.9958-1.447-1.4924-2.551-1.4924-1.142 0-2.009.4979-2.605 1.4924-.51.8242-.762 1.8265-.762 3.0121 0 1.1505.252 2.1372.762 2.9588.614.9958 1.472 1.4924 2.58 1.4924 1.085 0 1.936-.507 2.551-1.5184.523-.8385.787-1.8356.787-2.9848zM150.083 30.918c-.281-.0507-.581-.0767-.895-.0767-1 0-1.773.3679-2.316 1.105-.474.65-.711 1.4716-.711 2.4635v6.5455h-2.84l.027-8.5462c0-1.4378-.036-2.7469-.107-3.9273h2.475l.104 2.3868h.079c.3-.8203.773-1.4807 1.42-1.976.633-.4459 1.317-.6682 2.054-.6682.262 0 .5.0182.71.0507v2.6429zM162.79 34.1276c0 .4966-.033.9152-.104 1.2571h-8.523c.033 1.2324.445 2.1749 1.236 2.8249.719.5811 1.647.8723 2.788.8723 1.262 0 2.414-.1963 3.449-.5902l.445 1.924c-1.21.5148-2.639.7709-4.287.7709-1.983 0-3.54-.5694-4.672-1.7069-1.13-1.1375-1.697-2.665-1.697-4.5812 0-1.8811.527-3.4476 1.581-4.6969 1.103-1.3338 2.594-2.0007 4.471-2.0007 1.843 0 3.238.6669 4.186 2.0007.75 1.0595 1.127 2.3699 1.127 3.926zm-2.709-.7189c.018-.8216-.167-1.5314-.552-2.1307-.492-.7709-1.247-1.1557-2.264-1.1557-.929 0-1.685.3757-2.262 1.1297-.473.5993-.754 1.3182-.84 2.1554h5.918v.0013zM65.366 13.0118c0 1.5301-.4705 2.6819-1.41 3.4554-.8702.7137-2.1069 1.0712-3.7087 1.0712-.7943 0-1.4739-.0338-2.043-.1014V9.0767c.7423-.117 1.5419-.1768 2.4055-.1768 1.5258 0 2.6759.3237 3.4515.9711.8689.7319 1.3047 1.7784 1.3047 3.1408zm-1.4726.0377c0-.9919-.2692-1.7524-.8076-2.2828-.5384-.5291-1.3246-.7943-2.3601-.7943-.4398 0-.8142.0286-1.1247.0884v6.3557c.1719.026.4864.0377.9435.0377 1.0687 0 1.8936-.2899 2.4747-.8697.581-.5798.8742-1.4248.8742-2.535zM73.1738 14.3482c0 .9425-.2759 1.7147-.8276 2.3205-.5783.6227-1.3446.9334-2.3014.9334-.9222 0-1.6565-.2977-2.2042-.8957-.5464-.5967-.8196-1.3494-.8196-2.2568 0-.949.2812-1.7277.8462-2.3322.5651-.6045 1.3247-.9074 2.2815-.9074.9222 0 1.6631.2977 2.2242.8944.533.5798.8009 1.3286.8009 2.2438zm-1.4486.0442c0-.5655-.1253-1.0504-.3745-1.4547-.2931-.4888-.7102-.7332-1.2526-.7332-.5611 0-.9875.2444-1.2807.7332-.2505.4043-.3745.897-.3745 1.4794 0 .5655.1253 1.0504.3745 1.4547.3025.4888.7236.7332 1.2673.7332.5331 0 .9515-.2483 1.2527-.7462.2585-.4121.3878-.9009.3878-1.4664zM83.6432 11.335l-1.9657 6.1281h-1.2793l-.8142-2.6611a19.5036 19.5036 0 01-.5051-1.9798h-.0253a14.205 14.205 0 01-.5051 1.9798l-.8649 2.6611h-1.294l-1.8483-6.1281h1.4352l.7103 2.9132c.1719.689.3132 1.3455.4265 1.9669h.0253c.1039-.5122.2758-1.1648.5184-1.9539l.8915-2.9249h1.1381l.8542 2.8625c.2066.6981.3745 1.3702.5037 2.0176h.0387c.0946-.6305.2372-1.3026.4264-2.0176l.7623-2.8625h1.3713v-.0013zM90.8834 17.463h-1.3966v-3.51c0-1.0816-.4211-1.6224-1.266-1.6224-.4145 0-.7489.1482-1.0088.4459-.2572.2977-.3878.6487-.3878 1.0504v3.6348h-1.3966v-4.3758c0-.5382-.0173-1.1219-.0506-1.7537h1.2273l.0653.9581h.0387c.1625-.2977.4051-.5434.7236-.7397.3784-.2288.8022-.3445 1.266-.3445.5863 0 1.0741.1846 1.4619.5551.4824.4537.7236 1.131.7236 2.0306v3.6712zM94.7353 17.463h-1.3959v-8.94h1.3959v8.94zM102.957 14.3482c0 .9425-.276 1.7147-.828 2.3205-.578.6227-1.346.9334-2.301.9334-.9236 0-1.6578-.2977-2.2042-.8957-.5464-.5967-.8196-1.3494-.8196-2.2568 0-.949.2812-1.7277.8462-2.3322.5651-.6045 1.3247-.9074 2.2802-.9074.9234 0 1.6634.2977 2.2254.8944.533.5798.801 1.3286.801 2.2438zm-1.45.0442c0-.5655-.125-1.0504-.374-1.4547-.292-.4888-.711-.7332-1.2517-.7332-.5624 0-.9889.2444-1.2807.7332-.2505.4043-.3745.897-.3745 1.4794 0 .5655.1253 1.0504.3745 1.4547.3025.4888.7236.7332 1.2673.7332.5331 0 .9501-.2483 1.2511-.7462.26-.4121.388-.9009.388-1.4664zM109.716 17.463h-1.254l-.104-.7059h-.038c-.43.5629-1.041.845-1.836.845-.593 0-1.072-.1859-1.433-.5551-.328-.3354-.492-.7527-.492-1.248 0-.7488.32-1.3195.963-1.7147s1.546-.5889 2.71-.5798v-.1144c0-.8073-.435-1.2103-1.305-1.2103-.62 0-1.166.1521-1.638.4537l-.284-.8944c.584-.3523 1.305-.5291 2.155-.5291 1.642 0 2.466.845 2.466 2.535v2.2568c0 .6123.03 1.0998.09 1.4612zm-1.45-2.106v-.9451c-1.54-.026-2.311.3861-2.311 1.235 0 .3198.088.559.268.7189.18.1599.409.2392.683.2392.306 0 .593-.0949.854-.2834.262-.1898.424-.4303.484-.7254.014-.0663.022-.1469.022-.2392zM117.652 17.463h-1.239l-.066-.9841h-.038c-.396.7488-1.07 1.1232-2.018 1.1232-.757 0-1.387-.2899-1.887-.8697-.5-.5798-.749-1.3325-.749-2.2568 0-.9919.271-1.7953.815-2.4089.526-.572 1.171-.858 1.938-.858.844 0 1.434.2769 1.77.832h.027V8.523h1.398v7.289c0 .5967.016 1.1466.049 1.651zm-1.447-2.5844v-1.0218c0-.1768-.013-.3198-.039-.429-.078-.3276-.248-.6032-.505-.8255-.26-.2223-.573-.3341-.934-.3341-.521 0-.929.2015-1.229.6058-.297.4043-.447.9204-.447 1.5509 0 .6058.142 1.0972.429 1.4755.302.403.71.6045 1.22.6045.459 0 .825-.1677 1.104-.5044.269-.3107.401-.6851.401-1.1219zM129.596 14.3482c0 .9425-.275 1.7147-.827 2.3205-.579.6227-1.343.9334-2.302.9334-.92 0-1.655-.2977-2.204-.8957-.546-.5967-.819-1.3494-.819-2.2568 0-.949.281-1.7277.846-2.3322.565-.6045 1.324-.9074 2.283-.9074.92 0 1.663.2977 2.222.8944.534.5798.801 1.3286.801 2.2438zm-1.447.0442c0-.5655-.125-1.0504-.374-1.4547-.295-.4888-.711-.7332-1.254-.7332-.56 0-.986.2444-1.281.7332-.251.4043-.374.897-.374 1.4794 0 .5655.125 1.0504.374 1.4547.303.4888.724.7332 1.267.7332.533 0 .953-.2483 1.254-.7462.258-.4121.388-.9009.388-1.4664zM137.106 17.463h-1.395v-3.51c0-1.0816-.421-1.6224-1.268-1.6224-.414 0-.749.1482-1.007.4459-.259.2977-.388.6487-.388 1.0504v3.6348h-1.398v-4.3758c0-.5382-.016-1.1219-.049-1.7537h1.226l.065.9581h.039c.164-.2977.406-.5434.723-.7397.38-.2288.803-.3445 1.268-.3445.585 0 1.073.1846 1.46.5551.484.4537.724 1.131.724 2.0306v3.6712zM146.505 12.3553h-1.538v2.977c0 .7566.273 1.1349.814 1.1349.251 0 .459-.0208.623-.0637l.036 1.0335c-.276.1014-.639.1521-1.085.1521-.552 0-.981-.1638-1.291-.4914-.312-.3276-.467-.8788-.467-1.6523v-3.0901h-.918v-1.0205h.918v-1.1232l1.369-.403v1.5249h1.538v1.0218h.001zM153.898 17.463h-1.397v-3.484c0-1.0985-.422-1.6484-1.265-1.6484-.648 0-1.09.3185-1.333.9555-.041.1339-.065.2977-.065.4901v3.6855h-1.395V8.5229h1.395v3.6933h.027c.439-.6721 1.07-1.0075 1.887-1.0075.578 0 1.056.1846 1.436.5551.473.4615.71 1.1479.71 2.0553v3.6439zM161.525 14.109c0 .2444-.019.4498-.052.6175h-4.188c.018.6058.218 1.0673.606 1.3871.354.286.812.429 1.371.429.62 0 1.185-.0962 1.694-.2899l.219.9464c-.596.2522-1.297.3783-2.109.3783-.973 0-1.739-.2795-2.293-.8385-.557-.559-.833-1.3091-.833-2.2503 0-.9243.257-1.6939.776-2.3076.541-.6552 1.272-.9828 2.196-.9828.903 0 1.59.3276 2.053.9828.375.5201.56 1.1636.56 1.928zm-1.333-.3523c.011-.4043-.081-.7527-.27-1.0465-.243-.3783-.612-.5682-1.112-.5682-.455 0-.827.1847-1.111.5552-.232.2951-.369.6474-.414 1.0595h2.907z" fill="#fff"/>
</svg>
