<svg fill="none" xmlns="http://www.w3.org/2000/svg" viewBox="0 0 181 52">
  <path d="M173.899 52H7.5478c-3.658 0-6.654-2.9266-6.654-6.5v-39c0-3.5734 2.996-6.5 6.654-6.5H173.899c3.658 0 6.654 2.9266 6.654 6.5v39c0 3.5734-2.996 6.5-6.654 6.5z" fill="#000"/>
  <path d="M173.899 1.0416c3.081 0 5.587 2.4489 5.587 5.4584v39c0 3.0095-2.506 5.4584-5.587 5.4584H7.5478c-3.0808 0-5.5877-2.4489-5.5877-5.4584v-39c0-3.0095 2.507-5.4584 5.5877-5.4584H173.899zm0-1.0416H7.5478C3.8898 0 .8938 2.9266.8938 6.5v39c0 3.5734 2.996 6.5 6.654 6.5H173.899c3.658 0 6.654-2.9266 6.654-6.5v-39c0-3.5734-2.996-6.5-6.654-6.5z" fill="#A6A6A6"/>
  <path d="M63.9973 13.3169c0 1.0855-.3327 1.9549-.9881 2.6033-.7535.7686-1.735 1.1554-2.9377 1.1554-1.1495 0-2.131-.3933-2.9361-1.1684-.8068-.7865-1.2094-1.7518-1.2094-2.9071 0-1.1554.4026-2.1207 1.2094-2.9007.8051-.7816 1.7866-1.1748 2.9361-1.1748.5722 0 1.1178.1153 1.6385.3298.519.2162.9416.5087 1.2477.8694l-.6954.6858c-.534-.6159-1.2609-.9198-2.1908-.9198-.8384 0-1.5654.286-2.1825.8629-.6105.5785-.9166 1.3276-.9166 2.2474 0 .9197.3061 1.6753.9166 2.2538.6171.5704 1.3441.8629 2.1825.8629.89 0 1.6385-.2925 2.2291-.8694.3892-.3818.6105-.9083.6687-1.5811h-2.8978v-.9392h3.866c.0465.2031.0598.3997.0598.5898zM70.1306 10.0604h-3.6314v2.47h3.2738v.9393h-3.2738v2.47h3.6314v.9571h-4.6594V9.1033h4.6594v.9571zM74.4591 16.8968h-1.028v-6.8364h-2.2275v-.9571h5.4846v.9571h-2.2291v6.8364zM80.6575 16.8968V9.1033h1.0269v7.7935h-1.0269zM86.2335 16.8968h-1.0197v-6.8364H82.978v-.9571h5.4913v.9571h-2.2358v6.8364zM98.8529 15.8942c-.7868.7881-1.7616 1.1814-2.9244 1.1814-1.1695 0-2.1443-.3933-2.9311-1.1814-.7852-.7865-1.1761-1.7518-1.1761-2.8941 0-1.1424.3909-2.1077 1.1761-2.8942.7868-.788 1.7616-1.1813 2.9311-1.1813 1.1561 0 2.131.3932 2.9178 1.1878.7918.793 1.1827 1.7518 1.1827 2.8877 0 1.1423-.3909 2.1076-1.1761 2.8941zm-5.0953-.6533c.5922.5834 1.3125.8759 2.1709.8759.8517 0 1.5787-.2925 2.1642-.8759.5906-.5833.89-1.3325.89-2.2408 0-.9084-.2994-1.6575-.89-2.2409-.5855-.5834-1.3125-.8759-2.1642-.8759-.8584 0-1.5787.2925-2.1709.8759-.5905.5834-.89 1.3325-.89 2.2409 0 .9083.2995 1.6575.89 2.2408zM101.471 16.8968V9.1033h1.248l3.879 6.0612h.045l-.045-1.4982v-4.563h1.027v7.7935h-1.072l-4.062-6.3603h-.045l.045 1.5048v4.8555h-1.02z" fill="#fff" stroke="#fff" stroke-width=".16" stroke-miterlimit="10"/>
  <path d="M91.5682 28.2783c-3.1257 0-5.6792 2.3237-5.6792 5.5299 0 3.1801 2.5535 5.5282 5.6792 5.5282 3.1324 0 5.6859-2.3481 5.6859-5.5282 0-3.2062-2.5535-5.5299-5.6859-5.5299zm0 8.8806c-1.7151 0-3.1906-1.3829-3.1906-3.3507 0-1.9939 1.4755-3.3524 3.1906-3.3524 1.7151 0 3.1973 1.3585 3.1973 3.3524 0 1.9678-1.4822 3.3507-3.1973 3.3507zm-12.3915-8.8806c-3.1324 0-5.6792 2.3237-5.6792 5.5299 0 3.1801 2.5468 5.5282 5.6792 5.5282 3.1308 0 5.6793-2.3481 5.6793-5.5282 0-3.2062-2.5485-5.5299-5.6793-5.5299zm0 8.8806c-1.7167 0-3.1972-1.3829-3.1972-3.3507 0-1.9939 1.4805-3.3524 3.1972-3.3524 1.7151 0 3.1906 1.3585 3.1906 3.3524 0 1.9678-1.4755 3.3507-3.1906 3.3507zm-14.7453-7.1857v2.3497h5.7441c-.168 1.313-.6172 2.2783-1.3059 2.951-.8384.8125-2.1442 1.7144-4.4382 1.7144-3.535 0-6.303-2.7869-6.303-6.24s2.768-6.24 6.303-6.24c1.9114 0 3.3021.7296 4.3285 1.6754l1.6951-1.6559c-1.4356-1.339-3.3453-2.3676-6.0236-2.3676-4.8475 0-8.9214 3.8528-8.9214 8.5881 0 4.7352 4.0739 8.5881 8.9214 8.5881 2.62 0 4.588-.8385 6.135-2.4115 1.5853-1.5486 2.0794-3.7261 2.0794-5.4844 0-.546-.0466-1.0481-.1297-1.4673h-8.0847zm60.2956 1.8216c-.468-1.2366-1.91-3.5165-4.848-3.5165-2.911 0-5.334 2.2409-5.334 5.5299 0 3.0972 2.398 5.5282 5.614 5.5282 2.6 0 4.1-1.5486 4.718-2.4505l-1.93-1.2561c-.644.9197-1.52 1.5291-2.788 1.5291-1.259 0-2.163-.5639-2.742-1.6754l7.571-3.0598-.261-.6289zm-7.719 1.8411c-.065-2.132 1.695-3.224 2.956-3.224.988 0 1.827.4826 2.106 1.1733l-5.062 2.0507zM110.855 39h2.489V22.75h-2.489V39zm-4.076-9.49h-.083c-.559-.6467-1.625-1.2317-2.976-1.2317-2.834 0-5.4262 2.431-5.4262 5.5477 0 3.0989 2.5922 5.5104 5.4262 5.5104 1.351 0 2.417-.5899 2.976-1.2561h.083v.793c0 2.1141-1.156 3.25-3.021 3.25-1.52 0-2.463-1.0725-2.853-1.9744l-2.1637.8824c.6238 1.4657 2.2757 3.2695 5.0167 3.2695 2.918 0 5.38-1.677 5.38-5.7574v-9.9287h-2.359v.8953zm-2.846 7.6489c-1.715 0-3.151-1.4024-3.151-3.3329 0-1.9483 1.436-3.3702 3.151-3.3702 1.69 0 3.023 1.4219 3.023 3.3702 0 1.9305-1.333 3.3329-3.023 3.3329zM136.378 22.75h-5.952V39h2.482v-6.1571h3.47c2.757 0 5.46-1.9484 5.46-5.0472 0-3.0973-2.71-5.0457-5.46-5.0457zm.065 7.8325h-3.535v-5.5721h3.535c1.853 0 2.911 1.5031 2.911 2.7853 0 1.2577-1.058 2.7868-2.911 2.7868zm15.343-2.3351c-1.794 0-3.659.7735-4.425 2.4879l2.202.9019c.474-.9019 1.346-1.1944 2.267-1.1944 1.288 0 2.594.7556 2.614 2.0897v.1707c-.449-.2535-1.411-.6289-2.594-.6289-2.372 0-4.789 1.2756-4.789 3.6562 0 2.1775 1.943 3.5799 4.127 3.5799 1.671 0 2.592-.7361 3.171-1.5925h.085v1.2561h2.397v-6.2335c0-2.8811-2.203-4.4931-5.055-4.4931zm-.3 8.905c-.812 0-1.943-.3932-1.943-1.3764 0-1.2577 1.411-1.7403 2.632-1.7403 1.093 0 1.605.2356 2.269.546-.195 1.5047-1.521 2.5707-2.958 2.5707zm14.088-8.5491l-2.853 7.0444h-.084l-2.95-7.0444h-2.676l4.431 9.8442-2.528 5.4779h2.593l6.829-15.3221h-2.762zM143.202 39h2.488V22.75h-2.488V39z" fill="#fff"/>
  <path d="M14.7807 9.8004c-.3909.3998-.6171 1.0222-.6171 1.8282v28.7495c0 .806.2262 1.4283.6171 1.8281l.0965.0877 16.4921-16.1037v-.3803L14.8772 9.7062l-.0965.0942z" fill="url(#paint0_linear)"/>
  <path d="M36.8604 31.5608l-5.4913-5.3706v-.3803l5.4979-5.3706.1231.0698 6.511 3.6189c1.8581 1.027 1.8581 2.717 0 3.7505l-6.511 3.6124-.1297.0699z" fill="url(#paint1_linear)"/>
  <path d="M36.9903 31.4909l-5.621-5.4908-16.5885 16.2061c.6171.6338 1.6235.7101 2.768.0764l19.4415-10.7917z" fill="url(#paint2_linear)"/>
  <path d="M36.9903 20.5091L17.5488 9.7175c-1.1445-.6273-2.1509-.5509-2.768.0829L31.3693 26l5.621-5.4909z" fill="url(#paint3_linear)"/>
  <defs>
    <linearGradient id="paint0_linear" x1="29.905" y1="40.6775" x2="8.0938" y2="18.3494" gradientUnits="userSpaceOnUse">
      <stop stop-color="#00A0FF"/>
      <stop offset=".0066" stop-color="#00A1FF"/>
      <stop offset=".2601" stop-color="#00BEFF"/>
      <stop offset=".5122" stop-color="#00D2FF"/>
      <stop offset=".7604" stop-color="#00DFFF"/>
      <stop offset="1" stop-color="#00E3FF"/>
    </linearGradient>
    <linearGradient id="paint1_linear" x1="45.9207" y1="25.9982" x2="13.7193" y2="25.9982" gradientUnits="userSpaceOnUse">
      <stop stop-color="#FFE000"/>
      <stop offset=".4087" stop-color="#FFBD00"/>
      <stop offset=".7754" stop-color="orange"/>
      <stop offset="1" stop-color="#FF9C00"/>
    </linearGradient>
    <linearGradient id="paint2_linear" x1="33.9337" y1="23.0151" x2="4.356" y2="-7.2635" gradientUnits="userSpaceOnUse">
      <stop stop-color="#FF3A44"/>
      <stop offset="1" stop-color="#C31162"/>
    </linearGradient>
    <linearGradient id="paint3_linear" x1="10.6051" y1="51.771" x2="23.8129" y2="38.2503" gradientUnits="userSpaceOnUse">
      <stop stop-color="#32A071"/>
      <stop offset=".0685" stop-color="#2DA771"/>
      <stop offset=".4762" stop-color="#15CF74"/>
      <stop offset=".8009" stop-color="#06E775"/>
      <stop offset="1" stop-color="#00F076"/>
    </linearGradient>
  </defs>
</svg>
