<svg fill="none" xmlns="http://www.w3.org/2000/svg" viewBox="0 0 62 63">
  <g clip-path="url(#clip0)">
    <path d="M60.2778 56.3824l-20.4543 5.2364-20.5748-5.2364L0 61.6188V23.4814l19.2487-5.2363 19.9089 4.7042 21.1202-4.7042v38.1373z" fill="#AAA98D"/>
    <path d="M60.8519 53.7614l-19.8802 5.2364-20.305-5.5024-19.5185 5.6609V22.9266l18.7435-5.225 19.2659 4.591 21.6943-4.0476v35.5164z" fill="#EAE9DA"/>
    <path d="M21.2408 52.9293h-1.7222v-1.1322h1.7222v1.1322zm0-2.8304h-1.7222v-1.6983h1.7222v1.6983zm0-3.3966h-1.7222v-1.6982h1.7222v1.6982zm0-3.3965h-1.7222v-1.6983h1.7222v1.6983zm0-3.3965h-1.7222V38.211h1.7222v1.6983zm0-3.3966h-1.7222v-1.6982h1.7222v1.6982zm0-3.3965h-1.7222v-1.6983h1.7222v1.6983zm0-3.3965h-1.7222v-1.6983h1.7222v1.6983zm0-3.3966h-1.7222v-1.6982h1.7222v1.6982zm0-3.3965h-1.7222v-1.6983h1.7222v1.6983zM41.3333 56.8919h-1.7222v-1.6983h1.7222v1.6983zm0-3.3965h-1.7222v-1.6983h1.7222v1.6983z" fill="#AAA98D"/>
    <path d="M43.004 9.448c-1.1367 0-2.1643.4586-2.9221 1.2001-.7635-.7415-1.7911-1.2-2.922-1.2-2.348 0-4.2539 1.9529-4.2539 4.3645 0 4.908 7.1759 9.1649 7.1759 9.1649s7.176-4.2569 7.176-9.1649c0-2.4059-1.906-4.3646-4.2539-4.3646z" fill="#FF7A45"/>
    <path d="M40.8626 22.4737c1.86-1.268 6.3894-4.7551 6.3894-8.6555 0-2.4115-1.9059-4.3645-4.2539-4.3645-1.1366 0-2.1642.4585-2.922 1.2001a4.374 4.374 0 00-.775-.5944c-2.2274.1359-3.9956 2.0322-3.9956 4.3532 0 3.3965 3.4445 6.4817 5.5571 8.0611z" fill="#FFBB96"/>
    <path d="M40.0704 1.1775c-8.6283 0-15.6206 6.895-15.6206 15.4032 0 8.5083 15.6206 29.8159 15.6206 29.8159s15.6205-21.3132 15.6205-29.8159c0-8.5083-6.9922-15.4032-15.6205-15.4032zm.1607 21.9359s-7.2792-4.274-7.2792-9.2103c0-2.4228 1.9289-4.3872 4.3113-4.3872 1.1481 0 2.1929.4586 2.9679 1.2058.775-.7472 1.8141-1.2058 2.968-1.2058 2.3824 0 4.3113 1.9644 4.3113 4.3872 0 4.9363-7.2793 9.2103-7.2793 9.2103z" fill="#14412D"/>
    <path d="M38.0783 1.3077C30.3972 2.27 24.4556 8.7404 24.4556 16.575c0 6.6062 9.4148 20.9283 13.6227 27.0024 4.208-6.0741 13.6228-20.3962 13.6228-27.0024 0-7.8347-5.9416-14.305-13.6228-15.2674zm2.1528 21.8057s-7.2792-4.274-7.2792-9.2103c0-2.4228 1.9289-4.3871 4.3113-4.3871 1.1481 0 2.1929.4585 2.9679 1.2057.775-.7472 1.8141-1.2057 2.968-1.2057 2.3824 0 4.3113 1.9643 4.3113 4.3871 0 4.9363-7.2793 9.2103-7.2793 9.2103z" fill="#41A550"/>
    <path d="M39.8981 49.5328c2.0608 0 3.7315-.7604 3.7315-1.6983s-1.6707-1.6983-3.7315-1.6983-3.7315.7604-3.7315 1.6983 1.6707 1.6983 3.7315 1.6983z" fill="#AAA98D"/>
    <path d="M40.2311 23.6795c-.1033 0-.2009-.0283-.2927-.0793-.31-.1811-7.5606-4.5004-7.5606-9.6971 0-2.7285 2.193-4.9532 4.8854-4.9532 1.0792 0 2.1126.3566 2.9679 1.019.8497-.6624 1.883-1.019 2.968-1.019 2.6924 0 4.8854 2.219 4.8854 4.9532 0 5.1967-7.2506 9.5103-7.5606 9.6971-.0918.0566-.1952.0793-.2928.0793zm-2.9679-13.5918c-2.0609 0-3.7372 1.7152-3.7372 3.8211 0 4.0079 5.3733 7.6875 6.7051 8.5366 1.3319-.8491 6.7052-4.5287 6.7052-8.5366 0-2.1059-1.6763-3.8211-3.7372-3.8211-.953 0-1.8657.3736-2.5661 1.0473a.5812.5812 0 01-.8037 0c-.7004-.6737-1.6074-1.0473-2.5661-1.0473z" fill="#000"/>
    <path d="M40.0704 48.2307a.8659.8659 0 01-.7004-.3566c-.6602-.9114-16.1085-22.4397-16.1085-31.2934C23.2615 7.4384 30.7991 0 40.0704 0S56.885 7.4384 56.885 16.5751c0 8.8536-15.4541 30.382-16.1085 31.2934-.1665.2264-.4248.3622-.7061.3622zm0-46.5324c-8.3184 0-15.0867 6.6742-15.0867 14.8768 0 7.2969 12.0269 24.9418 15.0867 29.3177 3.0655-4.3759 15.0924-22.0208 15.0924-29.3177 0-8.2026-6.7684-14.8768-15.0924-14.8768z" fill="#000"/>
    <path d="M.8611 63a.8654.8654 0 01-.5224-.1755A.8406.8406 0 010 62.1509V22.9945c0-.3849.264-.7189.6372-.8208l20.0926-5.2816a.8351.8351 0 01.4995.017l2.8703.968c.4478.1528.6889.634.5339 1.0756-.155.4415-.6429.6793-1.0907.5264l-2.6235-.8831-19.197 5.0552V61.047l19.0075-4.9986a.8375.8375 0 01.4421 0l19.8687 5.225 19.2372-5.0608V18.7375l-4.1448.7756c-.465.0849-.9186-.2151-1.0047-.6737-.0861-.4585.2182-.9057.6832-.9906l5.1666-.968c.2584-.0453.511.017.7119.1811.1952.1642.31.4019.31.6567v39.1563c0 .385-.2641.719-.6372.8209l-20.0926 5.2816a.837.837 0 01-.442 0l-19.8688-5.225-19.8687 5.225C1.0104 62.9887.9357 63 .8611 63z" fill="#000"/>
  </g>
  <defs>
    <clipPath id="clip0">
      <path fill="#fff" d="M0 0h62v63H0z"/>
    </clipPath>
  </defs>
</svg>
