<svg fill="none" xmlns="http://www.w3.org/2000/svg" viewBox="0 0 72 62">
  <g clip-path="url(#clip0)">
    <path d="M13.3448 57.7115c4.9706 0 9-3.9773 9-8.8834 0-4.9062-4.0294-8.8834-9-8.8834-4.9705 0-9 3.9772-9 8.8834 0 4.9061 4.0295 8.8834 9 8.8834zM58.6241 57.7115c4.9706 0 9.0001-3.9773 9.0001-8.8834 0-4.9062-4.0295-8.8834-9.0001-8.8834-4.9705 0-9 3.9772-9 8.8834 0 4.9061 4.0295 8.8834 9 8.8834z" fill="#EAE9DA"/>
    <path d="M36 33.2056l-4.3448 3.0632s1.862 2.4506 1.862 4.2885c0 1.0599-.6207 9.8024-.6207 9.8024l3.7242.6127s1.5951-12.5042 1.2413-14.0909C37.5083 35.2947 36 33.2056 36 33.2056z" fill="#FFDCB4"/>
    <path d="M53.3793 25.8538l2.4827 6.7391h5.5862l2.4828-7.3518-10.5517.6127z" fill="#41A550"/>
    <path d="M57.8048 32.8808c-.3662 0-.7138-.2144-.8627-.5697l-2.4331-5.8018c-.1986-.4718.031-1.0048.5027-1.2008.478-.1899 1.018.0306 1.2166.4962l2.4331 5.8018c.1986.4718-.031 1.0048-.5028 1.2008-.1179.049-.2358.0735-.3538.0735z" fill="#14412D"/>
    <path d="M13.3448 36.8814c-6.6848 0-12.1035 5.3485-12.1035 11.9467S6.66 60.7747 13.3448 60.7747s12.1034-5.3484 12.1034-11.9466-5.4186-11.9467-12.1034-11.9467zm0 20.2174c-4.6304 0-8.3793-3.7004-8.3793-8.2707 0-4.5704 3.749-8.2708 8.3793-8.2708s8.3793 3.7065 8.3793 8.2708c0 4.5703-3.749 8.2707-8.3793 8.2707zM58.6552 36.8814c-6.6848 0-12.1034 5.3485-12.1034 11.9467s5.4186 11.9466 12.1034 11.9466c6.6848 0 12.1035-5.3484 12.1035-11.9466S65.34 36.8814 58.6552 36.8814zm0 20.2174c-4.6303 0-8.3793-3.7004-8.3793-8.2707 0-4.5704 3.749-8.2708 8.3793-8.2708 4.6304 0 8.3793 3.7004 8.3793 8.2708 0 4.5703-3.7489 8.2707-8.3793 8.2707z" fill="#FFBB96"/>
    <path d="M36.8379 55.0648l-4.2021-.9006c-.6827-.147-1.1172-.8087-.9682-1.4826.1489-.6739.8193-1.1027 1.502-.9557l4.2021.9006c.6828.147 1.1172.8087.9683 1.4826-.1428.6739-.8193 1.1028-1.5021.9557z" fill="#41A550"/>
    <path d="M39.5504 16.1433l-2.3214 4.068 1.651 2.0278 7.6966 2.2178c1.0241.4411 2.2283.0123 2.7248-.9741.5276-1.0476.0807-2.3158-.9931-2.812l-6.5607-1.8196-2.1972-2.7079zM33.5172 3.443l.6642 4.7297-.8193 1.7583 2.3338 1.4826.8193-1.7583c1.9365-.1102 2.9607-1.985 3.6186-4.5397l-6.6166-1.6725z" fill="#FFDCB4"/>
    <path d="M40.6242 5.4158a3.5007 3.5007 0 00.1986-.8454C41.0462 2.5547 39.569.7413 37.5207.5207 35.4787.3002 33.6414 1.7583 33.418 3.78c0 .0245 7.2062 1.6358 7.2062 1.6358z" fill="#41A550"/>
    <path d="M35.5469 18.4775l1.4586 1.4213 2.5821-3.8719-4.4193-4.987s-.6766-.7045-1.1297-.919c-1.651-.7474-3.5876-.0183-4.2083 1.5745l-4.6551 11.8793c-.2545.6555-.4469 1.5377-.4469 2.2178l7.5414 1.1701 3.2772-8.4851z" fill="#14412D"/>
    <path d="M27.0807 31.5514l4.5683 4.7664 4.6428-3.1429-4.0283-6.1939c.0062-.0184-7.5352-1.1885-7.5352-1.1885-.0062 2.0952.8131 4.1537 2.3524 5.7589z" fill="#FF7A45"/>
    <path d="M39.5877 16.0269l-4.4194-4.987s-.3289-.3369-.6765-.6188c-.7014.3064-1.2848.8577-1.5766 1.6052l-4.6551 11.8792c-.2545.6556-.4283 1.2069-.4283 1.887l4.5621.7045 3.1531-8.0195 1.4586 1.4213 2.5821-3.8719z" fill="#41A550"/>
    <path d="M27.5338 26.2274c.3724 1.2744 1.0552 2.469 2.0297 3.486l4.5682 4.7664 2.0918-1.4152-3.9538-6.0836c0-.0184-4.7359-.7536-4.7359-.7536z" fill="#FFBB96"/>
    <path d="M58.6551 62c-7.3613 0-13.3448-5.9059-13.3448-13.1719 0-7.266 5.9835-13.1719 13.3448-13.1719C66.0165 35.6562 72 41.5621 72 48.8281 72 56.0941 66.0165 62 58.6551 62zm0-24.5059c-6.331 0-11.4827 5.085-11.4827 11.334s5.1517 11.334 11.4827 11.334c6.3311 0 11.4828-5.085 11.4828-11.334s-5.1517-11.334-11.4828-11.334zM13.3448 62C5.9835 62 0 56.0941 0 48.8281c0-7.266 5.9835-13.1719 13.3448-13.1719 7.3614 0 13.3449 5.912 13.3449 13.1719C26.6897 56.088 20.7062 62 13.3448 62zm0-24.5059c-6.331 0-11.4827 5.085-11.4827 11.334s5.1517 11.334 11.4827 11.334c6.3311 0 11.4828-5.085 11.4828-11.334s-5.1517-11.334-11.4828-11.334z" fill="#000"/>
    <path d="M58.8724 50.3413c-.36 0-.7075-.2083-.8565-.5575L47.4952 25.4617c-.2048-.4656.0186-1.0048.4904-1.207.4717-.2021 1.0179.0184 1.2227.484l10.5269 24.316c.2048.4657-.0186 1.0048-.4903 1.207a.9072.9072 0 01-.3725.0796z" fill="#000"/>
    <path d="M54.3104 30.7549H35.6897c-.5152 0-.931-.4104-.931-.9189 0-.5085.4158-.919.931-.919h18.6207c.5152 0 .931.4105.931.919 0 .5085-.4158.9189-.931.9189zM31.9655 50.3597H12.7241c-.5151 0-.931-.4105-.931-.919 0-.5085.4159-.9189.931-.9189h19.2414c.5152 0 .931.4104.931.9189 0 .5085-.4158.919-.931.919zM58.6552 50.9723c1.1998 0 2.1724-.96 2.1724-2.1442 0-1.1843-.9726-2.1443-2.1724-2.1443-1.1998 0-2.1724.96-2.1724 2.1443 0 1.1842.9726 2.1442 2.1724 2.1442z" fill="#000"/>
    <path d="M13.3448 50.9723c1.1998 0 2.1724-.96 2.1724-2.1442 0-1.1843-.9726-2.1443-2.1724-2.1443-1.1998 0-2.1724.96-2.1724 2.1443 0 1.1842.9726 2.1442 2.1724 2.1442zM37.5518 46.0712c-.2235 0-.4531-.0797-.6269-.2451a.9113.9113 0 01-.0559-1.2988l12.6621-13.6008c.3476-.3737.9372-.3982 1.3158-.0551a.9112.9112 0 01.0559 1.2988L38.2407 45.771a.935.935 0 01-.6889.3002z" fill="#000"/>
    <path d="M13.0034 50.3413a.9421.9421 0 01-.6145-.2267c-.3848-.3369-.422-.9128-.0869-1.2988l14.5056-16.3087c.3351-.3798.9248-.4166 1.3158-.0858.3848.337.4221.9129.0869 1.2989L13.7048 50.0289c-.18.2083-.4407.3124-.7014.3124z" fill="#000"/>
    <path d="M23.8966 36.8814a.9516.9516 0 01-.5586-.1837l-4.7173-3.4921h-9c-.5151 0-.931-.4105-.931-.919 0-.5085.4159-.919.931-.919h9.3104c.1986 0 .3972.0674.5586.1838l4.9655 3.6759c.4097.3063.4966.8822.1862 1.2866-.18.2389-.4593.3675-.7448.3675zM61.7586 33.8182h-5.5862c-.3786 0-.7138-.2206-.8566-.5636l-3.1034-7.3518a.913.913 0 01.0869-.8638.936.936 0 01.7758-.4105h11.1724c.298 0 .5773.1409.7573.3798a.9152.9152 0 01.1303.8271l-2.4827 7.3518c-.1366.3798-.4904.631-.8938.631zm-4.9655-1.8379h4.2951l1.8621-5.5139h-8.4848l2.3276 5.5139zM36.962 56.7435a2.781 2.781 0 01-.6703-.0797l-3.8669-.9435c-.7262-.1776-1.3345-.6187-1.7193-1.2498-.3849-.631-.4966-1.3723-.3166-2.0891l.0621-.2512c.3724-1.4765 1.8869-2.3832 3.3827-2.0156l3.8669.9435c1.4959.3676 2.4083 1.8624 2.0421 3.3389l-.0621.2512c-.3227 1.2559-1.4648 2.0953-2.7186 2.0953zm-.2234-1.8625c.5027.1226 1.0055-.1776 1.1296-.6739l.0621-.2512c.1241-.4901-.18-.9925-.6828-1.115l-3.8669-.9435c-.4965-.1225-1.0055.1777-1.1296.6739l-.0621.2512c-.1241.4901.18.9925.6828 1.115l3.8669.9435zM36.0807 11.6954c-.0869 0-.18-.0183-.2607-.0612-.3103-.1471-.4407-.5085-.2979-.8148l.6952-1.4581a.613.613 0 01.4655-.3431c.7821-.1164 1.4524-.6066 1.7876-1.3172l.8503-1.7767c.1055-.2267.1738-.4717.2049-.7658.031-.337.3413-.5759.6765-.5514.3414.0306.5897.3308.5586.6678-.0434.4288-.1489.8148-.3165 1.164l-.8504 1.7767c-.4655.9741-1.3469 1.6787-2.3896 1.936l-.5649 1.1824c-.0993.2328-.3227.3614-.5586.3614zM31.9655 27.6917c-.0496 0-.1055-.0061-.1551-.0123l-6.1387-1.0292c-.5089-.0858-.8503-.5575-.7634-1.0599.0869-.5024.571-.8332 1.0738-.7536l6.1386 1.0293c.509.0858.8503.5575.7634 1.0599-.0806.4472-.4717.7658-.9186.7658z" fill="#000"/>
    <path d="M41.0648 6.0407a.4905.4905 0 01-.1366-.0184L33.1634 4.258c-.3352-.0735-.54-.4044-.4655-.7352.571-2.4444 3.0538-3.97 5.5241-3.4063 2.4766.5636 4.0221 3.0081 3.4511 5.4526a.614.614 0 01-.2731.3798.6576.6576 0 01-.3352.0919zm-6.9642-2.8243l6.4428 1.4703c.0683-1.5622-1.0055-3.008-2.6069-3.3695-.8752-.2022-1.7752-.049-2.5386.4166-.5835.3553-1.0304.87-1.2973 1.4826z" fill="#000"/>
    <path d="M34.498 10.5804c-.0745.0736-.1738.1226-.2856.1471-.3227.0674-.6393-.1348-.7138-.4534l-.3103-1.3907c-.0559-.245-.0745-.4962-.0621-.7474l.2049-4.307c.0124-.3247.2979-.5758.6269-.5636.3289.0123.5834.294.571.6188l-.2048 4.307a1.769 1.769 0 00.0372.441l.3041 1.3907c.0559.2145-.0186.4228-.1675.5575z" fill="#000"/>
    <path d="M36.6083 52.5653c-.0372 0-.0745 0-.1117-.0062-.509-.0612-.8752-.5146-.8131-1.0231l1.5889-13.1229c.1304-1.0722-.1117-2.1749-.6827-3.0939l-5.1021-7.8419a.8978.8978 0 01-.0869-.8209l3.2835-8.5036c.1117-.2879.3662-.5024.6703-.5698.3041-.0612.6269.0245.8504.2451l3.5627 3.4676 7.5041 2.5915a.7548.7548 0 01.1056.0429c.2917.1409.6207.1593.931.0612.3103-.1041.5524-.3185.6952-.6065.1427-.2879.1676-.6126.062-.919-.0993-.2818-.2917-.5146-.5586-.6616l-6.5917-1.9727a.9088.9088 0 01-.4283-.2757l-7.02-7.9155c-.2421-.245-.6641-.6126-.8379-.6984-.5586-.2512-1.2228-.2695-1.8-.0367-.5338.2144-.931.6126-1.1297 1.115L26.038 23.9056c-.869 2.2239-.18 5.0421 1.7131 7.0148l4.8475 5.0543c1.3842 1.4459 2.0421 3.4002 1.8 5.373l-1.111 9.2142c-.0621.5024-.5214.87-1.0365.8026-.509-.0613-.8752-.5147-.8131-1.0232l1.111-9.2142c.1738-1.4275-.3042-2.8488-1.3035-3.8964l-4.8475-5.0544c-2.3773-2.4751-3.2152-6.0713-2.098-8.9385l4.6552-11.8854c.3848-.9802 1.1483-1.746 2.16-2.1565 1.0552-.4228 2.2593-.3982 3.3021.0796.5896.288 1.2786.9864 1.4151 1.1212l6.8711 7.7438 6.4179 1.9238c.0497.0122.0931.0306.1428.0551.7386.3553 1.291.9802 1.5579 1.746.2669.7659.211 1.5929-.149 2.322-.36.729-.9869 1.2743-1.7689 1.5377-.7573.2573-1.5704.2145-2.2966-.1225l-7.6531-2.6405a.892.892 0 01-.3476-.2144l-2.6938-2.6222-2.6069 6.7514 4.86 7.4682c.8007 1.2927 1.1359 2.8059.9559 4.2885l-1.589 13.123c-.0558.4656-.4593.8087-.9248.8087z" fill="#000"/>
    <path d="M37.6448 20.1745c-.1862 0-.3662-.0551-.5338-.1654-.4221-.2879-.5276-.8638-.2359-1.2804l1.9055-2.7079c.2918-.4166.8752-.5208 1.2973-.2328.422.2879.5276.8638.2358 1.2804l-1.9055 2.7079a.9354.9354 0 01-.7634.3982zM31.9655 36.8814c-.2979 0-.5959-.1409-.7759-.4104-.2855-.4228-.1676-.9925.2607-1.2744l3.7242-2.4505c.4282-.2819 1.0055-.1655 1.291.2573.2855.4227.1676.9925-.2607 1.2743l-3.7241 2.4506c-.1552.1041-.3352.1531-.5152.1531z" fill="#000"/>
  </g>
  <defs>
    <clipPath id="clip0">
      <path fill="#fff" d="M0 0h72v62H0z"/>
    </clipPath>
  </defs>
</svg>
