<svg fill="none" xmlns="http://www.w3.org/2000/svg" viewBox="0 0 41 41">
  <circle cx="20.5" cy="20.5" r="20.5" fill="#41A550"/>
  <path d="M20.4977 16.3283a4.1676 4.1676 0 00-3.8497 2.5747 4.1697 4.1697 0 00.9045 4.5427 4.1676 4.1676 0 006.4124-.6325 4.1696 4.1696 0 00.7024-2.3159 4.1731 4.1731 0 00-1.2223-2.9476 4.1706 4.1706 0 00-2.9473-1.2214zm9.7449-3.2045a4.2213 4.2213 0 00-2.3763-2.3767c-1.6409-.648-5.548-.5026-7.3686-.5026-1.8207 0-5.7239-.1508-7.3695.5026a4.2203 4.2203 0 00-2.3763 2.3767c-.647 1.6414-.5024 5.5532-.5024 7.3727 0 1.8195-.1446 5.7266.5056 7.3734a4.219 4.219 0 002.3762 2.3768c1.641.6479 5.548.5025 7.3695.5025 1.8214 0 5.723.1509 7.3687-.5025a4.2191 4.2191 0 002.3762-2.3768c.6525-1.6413.5025-5.5531.5025-7.3726 0-1.8196.15-5.7259-.5025-7.3727l-.0031-.0008zm-9.7449 13.7824a6.4069 6.4069 0 01-3.5599-1.0801 6.4092 6.4092 0 01-2.7246-6.5792 6.4104 6.4104 0 011.7536-3.2815 6.4066 6.4066 0 016.9829-1.3892 6.4072 6.4072 0 012.8756 2.3604 6.41 6.41 0 011.0799 3.5607 6.404 6.404 0 01-.4856 2.4538 6.4014 6.4014 0 01-3.4687 3.4694 6.3988 6.3988 0 01-2.4532.4857zm6.6716-11.5908a1.4958 1.4958 0 01-1.4677-1.7873 1.496 1.496 0 011.1749-1.1758 1.495 1.495 0 011.5355.636c.1644.246.2522.5352.2522.8311a1.4938 1.4938 0 01-.4347 1.0594 1.4929 1.4929 0 01-1.0571.4397l-.0031-.0031zm5.7434 10.3403c-.1008 2.0032-.5579 3.7781-2.02 5.2366-1.462 1.4584-3.235 1.925-5.2354 2.0204-2.0637.1164-8.2509.1164-10.3146 0-2.0027-.1009-3.7711-.5589-5.2354-2.0204-1.4644-1.4616-1.9246-3.2373-2.02-5.2366-.1164-2.0649-.1164-8.2543 0-10.3169.1008-2.0032.5525-3.7781 2.02-5.2365 1.4674-1.4585 3.2405-1.9196 5.2354-2.015 2.0637-.1164 8.2509-.1164 10.3146 0 2.0027.1009 3.7765.5589 5.2354 2.0204 1.4589 1.4616 1.9246 3.2373 2.02 5.2405.1164 2.0571.1164 8.241 0 10.3075z" fill="#EDF9ED"/>
</svg>
