<svg fill="none" xmlns="http://www.w3.org/2000/svg" viewBox="0 0 69 64">
  <path d="M2.4626 63.1579h39.5656l-7.5283-26.7958s5.4246-2.9081 5.5032-10.8519c.0785-7.9439.0729-7.9439.0729-7.9439s-4.7234-2.3972-11.5841-2.3972c-6.8608 0-10.8774 3.1495-10.8774 3.1495s-2.5636 10.0547 3.4725 14.8042c1.6324 1.1228 2.07 4.3116.7741 4.3509-1.3014.0393-2.6309 3.52-9.5141 5.3895-6.8832 1.8694-10.8661 9.5326-9.9068 18.0491l.0224 2.2456z" fill="#FFDCB4"/>
  <path d="M57.8422 33.6056H45.0239v21.1649h12.8183V33.6056z" fill="#EAE9DA"/>
  <path d="M2.4626 63.1579s-1.38-12.1993 3.551-16.4323c4.931-4.2329 12.7117-6.8884 12.7117-6.8884s4.1064 5.9341 9.8003 5.4119c5.6939-.5221 5.9743-1.7066 5.9743-1.7066l-.2804 19.3347-31.7569.2807zM40.9513 10.8688c0-5.3839-4.3588-9.746-9.7386-9.746h-4.4934c-5.3797 0-9.7385 4.3621-9.7385 9.746l-.6676 4.2498 1.3295 1.9986c7.1357-2.7397 14.2376-2.6891 21.3059.6681l2.0027-2.0043v-4.9122z" fill="#41A550"/>
  <path d="M2.5243 62.8772a.8406.8406 0 01-.8414-.8421v-4.3677c0-8.567 3.9604-13.5242 13.6709-17.106 3.6015-1.3305 5.9632-2.4421 5.9632-5.6926 0-.466.3759-.8421.8415-.8421a.8406.8406 0 01.8414.8421v.2189c0 .0337 0 .0674-.0056.1067-.1739 4.407-3.9829 5.8161-7.057 6.9502-9.0486 3.3347-12.5715 7.6912-12.5715 15.5228v4.3677a.8406.8406 0 01-.8415.8421z" fill="#000"/>
  <path d="M28.6154 37.4737c-5.3348 0-11.7861-5.7825-11.7861-12.9684v-6.8211c0-.466.3759-.8421.8415-.8421a.8407.8407 0 01.8415.8421v6.8211c0 6.2484 5.5256 11.2842 10.1031 11.2842.5161 0 1.0659-.0674 1.6269-.1909.46-.1011.9031.1796 1.0041.6344.101.4547-.1795.9038-.6339 1.0049-.6788.1572-1.3519.2358-1.9971.2358zM38.8532 30.574c-.129 0-.2636-.028-.387-.0954-.4152-.2133-.5722-.7242-.3591-1.134.7686-1.4878 1.1612-3.0485 1.1612-4.6428v-8.1404c0-.466.3759-.8421.8415-.8421a.8407.8407 0 01.8415.8421v8.1404c0 1.8638-.4544 3.6884-1.352 5.4175-.1458.2919-.4431.4547-.7461.4547zM28.6266 46.0351h-.2749c-4.1456 0-7.6405-1.7853-9.8507-5.0246-.2637-.3817-.1627-.9094.2188-1.1677.387-.2638.9088-.1628 1.1668.219 1.8905 2.7677 4.8917 4.2891 8.4651 4.2891h.2749c.9424 0 1.8568-.1067 2.7207-.32.4488-.1123.9088.1684 1.0154.6175.1122.4491-.1683.9095-.6171 1.0162-.9929.247-2.0419.3705-3.119.3705z" fill="#000"/>
  <path d="M55.5366 34.2456V47.36l-4.7515-1.7628L45.439 47.36V34.2456H34.2195v28.6316h31.9756V34.2456H55.5366z" fill="#FFBB96"/>
  <path d="M68.1585 64H.8415A.8406.8406 0 010 63.1579c0-.466.3759-.8421.8415-.8421h67.317a.8407.8407 0 01.8415.8421.8407.8407 0 01-.8415.8421z" fill="#000"/>
  <path d="M66.4757 64H33.9391a.8406.8406 0 01-.8414-.8421v-29.193c0-.466.3758-.8421.8414-.8421h32.5366a.8407.8407 0 01.8415.8421v29.193a.8407.8407 0 01-.8415.8421zm-31.6951-1.6842h30.8536V34.807H34.7806v27.5088z" fill="#000"/>
  <path d="M45.1586 48.2695c-.1739 0-.3478-.0562-.4937-.1572-.2187-.1628-.3478-.4155-.3478-.6849V34.4477a.8407.8407 0 01.8415-.8421.8407.8407 0 01.8415.8421v11.812l4.2353-1.4148a.8372.8372 0 01.561.0112l3.6183 1.353V34.5263a.8407.8407 0 01.8415-.8421.8406.8406 0 01.8414.8421v12.9011a.8349.8349 0 01-.3646.6905.8455.8455 0 01-.7742.0954l-4.4709-1.6786-5.0656 1.6899a.841.841 0 01-.2637.0449zM14.8659 63.4386a.8407.8407 0 01-.8415-.8421v-3.3684c0-.466.3759-.8421.8415-.8421a.8406.8406 0 01.8414.8421v3.3684a.8406.8406 0 01-.8414.8421z" fill="#000"/>
  <path d="M65.6341 34.807h-1.4754v27.52h1.4754v-27.52z" fill="#FF7A45"/>
  <path d="M33.6023 44.1881H32.127V62.327h1.4753V44.1881z" fill="#14412D"/>
  <path d="M34.2194 42.7734c-1.61 1.0273-3.5398 1.5719-5.6715 1.5719h-.2749c-.9424 0-1.8568-.1067-2.7207-.32-.4488-.1123-.9088.1684-1.0154.6175-.1121.4492.1683.9095.6171 1.0162.9929.2526 2.042.3761 3.119.3761h.2749c2.0812 0 3.9998-.4491 5.6715-1.308v-1.9537zM40.6707 16.2807a.8407.8407 0 01-.8415-.8421v-4.8505c0-4.9123-3.9885-8.9039-8.897-8.9039h-4.6449c-4.9086 0-8.8971 3.9916-8.8971 8.9039v3.1663a.8407.8407 0 01-.8415.8421.8406.8406 0 01-.8414-.8421v-3.1663C15.7073 4.7495 20.4531 0 26.2873 0h4.6449c5.8341 0 10.58 4.7495 10.58 10.5881v4.8505a.8407.8407 0 01-.8415.8421z" fill="#000"/>
  <path d="M39.1394 13.4737c-.4039 0-.7349-.3144-.7349-.6962v-2.3298c0-4.0645-3.478-7.3656-7.7583-7.3656H26.596c-4.2803 0-7.7583 3.3067-7.7583 7.3656v2.6218c0 .3873-.331.6961-.7349.6961s-.7349-.3144-.7349-.6961v-2.6218c0-4.8337 4.14-8.7635 9.2281-8.7635h4.0502c5.0881 0 9.2281 3.9298 9.2281 8.7635v2.3298c0 .3818-.331.6962-.7349.6962z" fill="#14412D"/>
  <path d="M38.8196 18.4309c-.46 0-.9536-.2134-1.6044-.4941-1.4305-.6175-4.0951-1.7628-9.0148-1.7628-5.0096 0-7.4105 1.1621-8.7064 1.7909-.7405.3593-1.279.6232-1.868.3705-.4095-.174-.6171-.5277-.7237-.7747l-1.0434-1.0442a.8416.8416 0 01-.2468-.5951c0-3.7053 5.6434-6.72 12.5826-6.72 1.5932 0 3.1808.1572 4.7178.4716.4544.0898.7518.5333.6564.9936a.8368.8368 0 01-.9929.6569c-1.4249-.2863-2.9003-.4379-4.3813-.4379-5.5704 0-10.4902 2.167-10.8773 4.7102l.9032.9038a.9611.9611 0 01.1178.146c.129-.0561.2805-.1347.4207-.1965 1.4137-.6849 4.0391-1.9593 9.4356-1.9593 5.2676 0 8.1398 1.2351 9.6825 1.9032.258.1122.5385.2358.7349.3031.0392-.073.0897-.1347.1458-.1909l.8976-.8982c-.1851-.9993-1.2173-2.0379-2.9003-2.8912-.4151-.2077-.5834-.7186-.3702-1.1341a.8462.8462 0 011.1332-.3705c2.4851 1.2576 3.8539 2.9305 3.8539 4.7102a.8417.8417 0 01-.2469.5951l-1.049 1.0498c-.1627.3593-.3983.6119-.7068.7523-.1795.0786-.3647.1123-.5498.1123z" fill="#000"/>
</svg>
