<svg fill="none" xmlns="http://www.w3.org/2000/svg" viewBox="0 0 61 64">
  <g clip-path="url(#clip0)">
    <path d="M39.3181 7.3079H1.1397v45.5336H39.318V7.3079z" fill="#AAA98D"/>
    <path d="M36.4689 7.3079H1.1397v45.5336h35.3292V7.3079z" fill="#EAE9DA"/>
    <path d="M28.4572 38.653h-.0911c-2.2508 0-4.2851 1.1861-5.3108 3.0917-.7921 1.4729-.9231 3.2099-.3533 4.7726.5527 1.5235 1.7266 2.7658 3.2252 3.4123l7.6927 3.474h4.5586l-.5698-9.5508-7.4078-10.6864-2.7466 3.3729 1.0029 2.1137z" fill="#AAA98D"/>
    <path d="M39.3181 6.7457H1.1397V3.3785c0-1.2424 1.0256-2.2542 2.285-2.2542H37.033c1.2593 0 2.285 1.0118 2.285 2.2542v3.3672z" fill="#14412D"/>
    <path d="M36.4689 6.7457H1.1397V3.3785c0-1.2424 1.0256-2.2542 2.285-2.2542h30.7592c1.2593 0 2.285 1.0118 2.285 2.2542v3.3672zM39.3181 53.4036H1.1397v3.3672c0 1.2423 1.0256 2.2542 2.285 2.2542H37.033c1.2593 0 2.285-1.0119 2.285-2.2542v-3.3672z" fill="#41A550"/>
    <path d="M31.3404 21.9236H9.1172v3.3728h22.2232v-3.3728zM26.9129 37.1014H13.5447c-.906 0-1.6753-.6577-1.8006-1.5403l-1.4873-10.2647h19.944l-1.4873 10.2647c-.1253.8826-.8946 1.5403-1.8006 1.5403z" fill="#FFBB96"/>
    <path d="M24.6337 25.2964c-.057.1124-.1197.2249-.171.3485-.6496 1.5291-.6154 3.2717.0969 4.7726l2.8947 6.1218c.8832.9219 1.5101-1.1861 2.1768-2.8107l-1.2936-8.4322h-3.7038z" fill="#FF7A45"/>
    <path d="M21.7959 25.7574c-.5983.2754-1.3049.0168-1.5841-.5734l-4.0287-8.5502c-.2792-.5903-.0171-1.2873.5812-1.5628.5983-.2754 1.3049-.0168 1.5841.5734l4.0287 8.5558c.2792.5847.0171 1.2817-.5812 1.5572z" fill="#FFBB96"/>
    <path d="M29.631 29.2314l-1.0029-1.6864H10.8267l-.5699-1.6864h19.944l-.5698 3.3728z" fill="#FF7A45"/>
    <path d="M55.7974 48.6141l.53-2.153c.2165-.8713.1367-1.7933-.2166-2.6196l-4.6441-10.7819c-.7293-1.6864-2.6155-2.5802-4.4047-2.0743L36.3207 34.004l-3.436-7.2685c-.6895-1.4616-2.3933-2.2711-3.9375-1.7314-1.7722.6183-2.5757 2.5858-1.8007 4.2217l6.7183 14.2109-4.2053-1.7257c-1.5101-.6184-3.3221-.0844-4.0914 1.3435-.8832 1.6358-.1311 3.6202 1.5613 4.3173l15.3455 7.6339 2.0627 4.3622 13.4252-6.178-2.1654-4.5758z" fill="#FFCBA4"/>
    <path d="M46.2472 57.6871l11.3681-5.2279-1.8178-3.8451.53-2.153c.2165-.8713.1367-1.7932-.2166-2.6196l-4.6441-10.7819c-.7293-1.6864-2.6155-2.5802-4.4047-2.0743L36.3208 34.004l-3.436-7.2685c-.7123-1.5065-2.5016-2.3217-4.08-1.6752-.3248.7758-.3305 1.6696.0513 2.4847l5.8635 12.4009a2.8296 2.8296 0 01-.5755 3.2267l-.2735.2698-4.2053-1.7258c-.832-.3429-1.7437-.3204-2.5358-.0056-.6211 1.5628.1368 3.3335 1.7152 3.98l15.3455 7.6339 2.057 4.3622zM57.7412 52.512l-14.3144 6.6016 1.7978 3.7939 14.3144-6.6016-1.7978-3.7939z" fill="#FFDCB4"/>
    <path d="M45.5137 58.1489l-2.0906.9641 1.7978 3.7939 2.0907-.9642-1.7979-3.7938z" fill="#FFDCB4"/>
    <path d="M39.3181 53.8252l-1.1396-.4216h-5.2766l6.4162 3.1199v-2.6983z" fill="#14412D"/>
    <path d="M36.7994 60.1493H3.6583C1.641 60.1493 0 58.5303 0 56.5404V3.609C0 1.619 1.6411 0 3.6583 0h33.1411c2.0172 0 3.6583 1.619 3.6583 3.609v28.7142c0 .4666-.3817.8432-.8547.8432-.473 0-.8547-.3766-.8547-.8432V3.609c0-1.0625-.8719-1.9226-1.9489-1.9226H3.6583c-1.077 0-1.9488.8601-1.9488 1.9226v52.9314c0 1.0624.8718 1.9225 1.9488 1.9225h33.1411c1.077 0 1.9489-.8601 1.9489-1.9225v-2.361c0-.4666.3817-.8433.8547-.8433.473 0 .8547.3767.8547.8433v2.361c0 1.9899-1.6411 3.6089-3.6583 3.6089z" fill="#000"/>
    <path d="M39.0332 7.87H1.4246c-.473 0-.8548-.3766-.8548-.8432 0-.4666.3818-.8432.8548-.8432h37.6086c.4729 0 .8547.3766.8547.8432 0 .4666-.3818.8432-.8547.8432zM38.4633 53.9657H1.4246c-.473 0-.8548-.3766-.8548-.8432 0-.4666.3818-.8432.8548-.8432h37.0387c.473 0 .8548.3766.8548.8432 0 .4666-.3818.8432-.8548.8432zM21.3684 26.6568c-.2051 0-.4159-.0337-.6154-.1068-.4501-.163-.8091-.4834-1.0086-.9106l-4.1198-8.7133c-.416-.8825-.0285-1.9337.8661-2.3441.4331-.2024.9231-.2192 1.3676-.0562.4502.163.8092.4834 1.0086.9107l4.1199 8.7132c.4159.8825.0284 1.9338-.8662 2.3441-.2393.1068-.4957.163-.7522.163zM17.2486 15.532a.6679.6679 0 00-.2735.0619c-.3248.1517-.4673.534-.3134.8544l4.1198 8.7132a.637.637 0 00.3647.3317.6323.6323 0 00.4958-.0225c.3248-.1518.4672-.534.3134-.8544l-4.1199-8.7133a.6365.6365 0 00-.3647-.3316.6182.6182 0 00-.2222-.0394z" fill="#000"/>
    <path d="M20.2117 25.8586H9.1172c-.3134 0-.5698-.253-.5698-.5621v-3.3729c0-.3092.2564-.5621.5698-.5621h9.499c.2222 0 .4217.1292.5186.326l1.5955 3.3729a.5678.5678 0 01-.0342.5396.5806.5806 0 01-.4844.2586zM9.687 24.7343h9.6301l-1.0656-2.2486H9.687v2.2486z" fill="#000"/>
    <path d="M27.0726 37.6636h-13.824c-1.0257 0-1.8805-.7252-2.0343-1.7258l-1.5215-9.9949c-.0456-.3092.171-.5959.4787-.6408.3191-.045.604.1686.6496.4722l1.5214 9.9949c.0684.4441.4502.7701.9061.7701h13.824c.4558 0 .8376-.326.906-.7701l.5299-2.1755c.0741-.3036.3875-.4891.6895-.416.3077.0731.4958.3766.4217.6802l-.5186 2.1249c-.1481.9556-1.0029 1.6808-2.0285 1.6808zM27.8188 25.8586H22.793c-.3134 0-.5699-.253-.5699-.5621 0-.3092.2565-.5622.5699-.5622h5.0258c.3135 0 .5699.253.5699.5622 0 .3091-.2564.5621-.5699.5621zM31.3405 25.8586c-.3134 0-.5699-.253-.5699-.5621v-2.8108h-8.8892c-.3135 0-.5699-.2529-.5699-.5621 0-.3092.2564-.5621.5699-.5621h9.4591c.3134 0 .5698.2529.5698.5621v3.3729c0 .3091-.2564.5621-.5698.5621z" fill="#000"/>
    <path d="M43.9451 58.9632c-.3248 0-.6325-.1799-.7749-.4891l-1.3448-2.8388-15.0549-7.4877c-1.02-.4273-1.8177-1.2649-2.1938-2.2936-.3761-1.0399-.2906-2.2036.2393-3.1873.9516-1.7652 3.2253-2.5241 5.1741-1.7258l2.171.8882-5.7894-12.2435c-.473-1.0006-.4958-2.1643-.0627-3.1817.433-1.0175 1.2935-1.8214 2.3534-2.1924 1.9146-.6689 4.1084.2811 4.9973 2.1699l3.1284 6.6164 10.0404-2.822c2.1995-.6183 4.5301.4835 5.4247 2.5578l4.6441 10.7819c.4274.9894.5185 2.108.2621 3.148l-.4615 1.8663 1.4359 3.0412c.1995.4216.0171.9219-.4159 1.1187-.4274.1967-.9346.0112-1.134-.4104l-1.567-3.311c-.0798-.1743-.1026-.371-.057-.5565l.5299-2.153c.171-.6915.1083-1.4335-.1709-2.0912l-4.6441-10.7819c-.5584-1.2929-2.0115-1.9788-3.3848-1.5965l-10.7412 3.0187c-.4103.1124-.832-.0787-1.0086-.4553l-3.4304-7.2573c-.5242-1.1074-1.7892-1.6752-2.8776-1.2929-.6211.2136-1.0998.6633-1.3505 1.2535-.245.5847-.2336 1.248.0342 1.8214l6.7183 14.211c.1481.3148.0854.6858-.1596.9388-.245.2529-.6211.326-.9459.1967l-4.2053-1.7202c-1.1454-.4665-2.4617-.0449-3.0087.9613-.3077.5734-.359 1.2199-.1368 1.8214.2166.5958.6781 1.0736 1.2707 1.3154a.264.264 0 01.057.0281l15.3455 7.6339a.8289.8289 0 01.3874.3991l1.4702 3.103c.1994.4216.0171.9219-.416 1.1187-.1025.0506-.2279.0787-.3476.0787z" fill="#000"/>
    <path d="M44.9195 64c-.3191 0-.6325-.1798-.7749-.489l-1.9261-4.0756a.8223.8223 0 01-.0285-.6464.8747.8747 0 01.4445-.4778l15.2258-7.0043c.4274-.1968.9345-.0169 1.134.4103l1.926 4.0756a.8219.8219 0 01.0285.6464.8747.8747 0 01-.4445.4778l-15.2258 7.0043c-.114.0563-.2393.0787-.359.0787zm-.792-4.5083l1.2023 2.5465 13.6759-6.2904-1.2024-2.5465-13.6758 6.2904z" fill="#000"/>
  </g>
  <defs>
    <clipPath id="clip0">
      <path fill="#fff" d="M0 0h61v64H0z"/>
    </clipPath>
  </defs>
</svg>
