<svg fill="none" xmlns="http://www.w3.org/2000/svg" viewBox="0 0 41 41">
  <circle cx="20.5" cy="20.5" r="20.5" fill="#41A550"/>
  <path d="M11 26.7359V15.5003h3.8537v11.2356H11zM11 11.9407C11 10.8391 11.8619 10 13.1802 10c1.3183 0 2.1302.8391 2.1552 1.9407 0 1.0788-.8369 1.9421-2.1806 1.9421h-.0246c-1.2938 0-2.1302-.8633-2.1302-1.9421zM21.0893 17.3559c.5115-.7651 1.4276-1.8556 3.4736-1.8556 2.536 0 4.4371 1.6062 4.4371 5.0573l-.0002 6.4421h-3.8535v-6.011c0-1.5099-.5577-2.5401-1.9527-2.5401-1.0647 0-1.6988.6945-1.9774 1.3654-.1019.2404-.1269.5753-.1269.9111V27h-3.8541s.0508-10.1813 0-11.2356h3.8541v1.5915z" fill="#EDF9ED"/>
</svg>
