<?xml version="1.0" standalone="no"?>
<!DOCTYPE svg PUBLIC "-//W3C//DTD SVG 20010904//EN"
 "http://www.w3.org/TR/2001/REC-SVG-20010904/DTD/svg10.dtd">
<svg version="1.0" xmlns="http://www.w3.org/2000/svg"
 width="260.000000pt" height="260.000000pt" viewBox="0 0 260.000000 260.000000"
 preserveAspectRatio="xMidYMid meet">
<metadata>
Created by potrace 1.14, written by Peter Selinger 2001-2017
</metadata>
<g transform="translate(0.000000,260.000000) scale(0.100000,-0.100000)"
fill="#000000" stroke="none">
<path d="M1220 2570 c-25 -5 -61 -11 -80 -14 -19 -4 -42 -9 -50 -11 -8 -2 -33
-6 -55 -10 -22 -3 -112 -18 -200 -35 -88 -16 -176 -31 -195 -34 -19 -3 -46 -8
-60 -11 -14 -3 -88 -16 -165 -30 -77 -14 -149 -27 -160 -29 -11 -2 -36 -6 -56
-10 l-35 -6 17 -88 c10 -48 20 -105 23 -127 4 -23 9 -52 11 -65 3 -14 8 -41
11 -60 3 -19 7 -37 9 -38 2 -2 118 17 257 42 139 25 269 48 288 51 19 3 46 8
60 10 45 9 70 14 188 35 152 26 167 29 232 41 30 6 65 12 78 13 12 2 24 5 26
7 2 2 -3 40 -11 84 -8 44 -22 127 -32 185 -19 117 -17 115 -101 100z"/>
<path d="M1753 2385 c-178 -32 -348 -166 -418 -331 -56 -130 -66 -283 -27
-409 21 -70 75 -167 122 -222 40 -46 128 -112 185 -138 165 -75 326 -73 491 5
199 96 323 289 326 510 1 103 -17 181 -63 275 -57 117 -144 204 -264 263 -106
52 -233 69 -352 47z"/>
<path d="M785 2032 c-93 -25 -172 -47 -173 -48 -4 -2 17 -83 82 -329 13 -49
43 -162 66 -250 23 -88 45 -163 48 -166 6 -5 360 85 368 94 2 2 -22 95 -96
370 -5 20 -14 54 -20 75 -5 20 -21 78 -34 127 -13 50 -29 109 -36 133 -6 23
-16 42 -23 41 -7 -1 -88 -22 -182 -47z"/>
<path d="M716 843 c-49 -186 -115 -437 -147 -558 -32 -121 -55 -223 -51 -227
19 -19 162 -27 237 -13 221 39 405 213 461 435 25 99 21 220 -10 314 -34 101
-66 155 -137 230 -58 62 -177 139 -234 150 l-30 6 -89 -337z"/>
<path d="M1720 1164 c-136 -35 -270 -132 -346 -251 -116 -180 -118 -433 -6
-618 151 -249 468 -348 729 -225 374 175 452 680 148 958 -112 103 -233 150
-380 150 -49 0 -115 -6 -145 -14z"/>
</g>
</svg>
