<svg fill="none" xmlns="http://www.w3.org/2000/svg" viewBox="0 0 68 76">
  <g clip-path="url(#clip0)">
    <path d="M.1055 56.2353V17.3802L33.8909.6381l33.4127 17.6054-.3166 40.5463-32.0972 15.4543L.1055 56.2353z" fill="#EAE9DA"/>
    <path d="M.1055 58.3865V17.3802l33.9894 16.9545v39.9094L.1055 58.3865z" fill="#FFBB96"/>
    <path d="M58.8064 26.5722v15.2773l-1.1818 2.1653-2.4057-.5024-1.1817 2.1653-2.3987-.5094-1.1747 2.1653-2.4058-.5025V30.9452L13.6184 14.8187l10.5162-4.8825 34.4396 16.1265.2322.5095z" fill="#41A550"/>
    <path d="M17.9724 62.6392l-9.9253-4.6986v-6.2624l9.9253 4.7057v6.2553z" fill="#FF7A45"/>
    <path d="M68 59.6955V17.6279L33.898.4116 0 17.2033V59.271l34.095 16.1406L68 59.6955zm-1.4068-.9057L34.7984 73.5294V34.5115l10.5373-4.8896v15.2066l3.4679.736 1.1747-2.1653 2.4057.5094 1.1747-2.1652 2.4057.5024 1.5194-2.788V23.9893l9.1023-4.2174v39.0179h.0071zM33.891 1.9896l32.4067 16.36-9.5666 4.4368L23.41 7.1834l10.481-5.1938zM21.785 7.9902l.3025.1415L56.084 24.0459v15.0439l-.8441 1.5497-2.4057-.5095-1.1747 2.1653-2.3987-.5095-1.1747 2.1653-1.3295-.283V28.9709l3.7352-1.7336-.5909-1.2879-3.6859 1.7054-32.9836-15.426 8.5536-4.2386zm11.6065 65.525L1.4068 58.3723V19.3615l31.9847 15.143v39.0107zM1.7023 17.9392l9.9112-4.9108 32.9203 15.4118-10.4318 4.8401-.2954-.1415L1.7023 17.9392z" fill="#000"/>
  </g>
  <defs>
    <clipPath id="clip0">
      <path fill="#fff" transform="translate(0 .4116)" d="M0 0h68v75H0z"/>
    </clipPath>
  </defs>
</svg>
