<svg fill="none" xmlns="http://www.w3.org/2000/svg" viewBox="0 0 86 93">
  <path d="M80.571 84.3751h-59.72L19.0413 55.42l1.8097-5.7639V35.5133h57.0054v37.0355l2.7146 11.8263z" fill="#AAA98D"/>
  <path d="M74.237 73.4536V35.5133H20.851v14.1428L19.0413 55.42l1.6377 26.2406h55.3677l-1.8097-8.207z" fill="#EAE9DA"/>
  <path d="M21.0591 61.2473a6.2187 6.2187 0 01-4.4971 0c-2.1807-.8505-5.601-1.6016-8.6323.2443-5.031 3.0675-5.239 10.9849-3.0584 15.8711 1.7826 4.0084 6.1349 8.1255 10.5415 7.3926 1.2216-.1991 2.2079-.742 2.9317-1.2578a.7874.7874 0 01.9411 0c.7239.5158 1.7101 1.0587 2.9317 1.2578 4.4066.7329 8.7589-3.3842 10.5415-7.3926 2.1716-4.8862 1.9635-12.8036-3.0584-15.8711-3.0403-1.8459-6.4606-1.0948-8.6413-.2443z" fill="#FFBB96"/>
  <path d="M11.9111 84.3751H25.71c3.0674-1.1129 5.7367-4.0899 7.0397-7.0216 2.1717-4.8862 1.9635-12.8036-3.0584-15.871-3.0312-1.8459-6.4515-1.0949-8.6322-.2443a6.1946 6.1946 0 01-4.4881 0c-2.1807-.8506-5.601-1.6016-8.6322.2443-5.04 3.0764-5.2482 10.9939-3.0675 15.8801 1.303 2.9226 3.9814 5.8996 7.0398 7.0125zm-2.778-22.5036c2.7327-1.6649 5.8092-.9681 7.7637-.199a5.3033 5.3033 0 003.9089 0c1.9635-.7782 4.3976-1.1492 7.1302.5157 4.4881 2.7327 3.6918 9.2747 2.8232 12.7313-.5882 2.3254-4.8862 7.0125-8.8676 6.7773-1.122-.0634-1.9997-.3529-2.6421-.8325-.2443-.1809-.5701-.1538-.8144.0181-.6424.4615-1.683.7872-2.7779.9682-3.927.6605-7.655-2.2259-9.2566-5.8001-1.9364-4.3704-1.7554-11.4373 2.7327-14.179z" fill="#FF7A45"/>
  <path d="M19.6748 56.6865s-.8777-3.6375.1719-5.5467c1.4116-2.5517 4.1442-2.8594 4.6781-2.9589.181.8958.8867 3.3299-.0815 5.3386-1.0586 2.1626-4.7685 3.167-4.7685 3.167z" fill="#41A550"/>
  <path d="M10.8976 68.9927c.9995 0 1.8097-.8102 1.8097-1.8097s-.8102-1.8097-1.8097-1.8097-1.8097.8102-1.8097 1.8097.8102 1.8097 1.8097 1.8097z" fill="#fff"/>
  <path d="M73.3323 35.5127H56.1401v-9.0485C62.4107 13.181 73.9204.9294 77.766 2.7482c3.8366 1.8096.9954 18.2869-4.4337 32.7645z" fill="#FFCBA4"/>
  <path d="M21.7559 22.8449l2.7145 12.6679h11.763l3.3208-16.3144-17.7983 3.6465z" fill="#FFDCB4"/>
  <path d="M36.8307 19.7594c-.2443.7058-.6153 1.3663-1.1401 1.9273l-2.3074 2.4793c-1.0587.8867-1.674 2.1897-1.674 3.5741v7.7727h4.5243l3.3208-16.3144-2.7236.561z" fill="#FFCBA4"/>
  <path d="M76.5535 2.5945c-4.3885.5158-13.5727 10.5415-19.3999 21.8249.8958.8687 1.4025 2.0631 1.4025 3.3208v5.0581h12.0616c4.3885-11.6906 7.0759-24.6842 5.9358-30.2038z" fill="#FFDCB4"/>
  <path d="M33.5189 32.7982h-9.0484v1.8097h9.0484v-1.8097z" fill="#FFCBA4"/>
  <path d="M50.7111 18.0129V15.606H39.8529v2.4069c0 1.3663-.5157 2.6783-1.4477 3.6736l-2.3074 2.4793c-1.0587.8868-1.674 2.1898-1.674 3.5742v7.7726h21.7164V27.74c0-1.3754-.6153-2.6874-1.674-3.5742l-2.3073-2.4793c-.932-1.0043-1.4478-2.3164-1.4478-3.6736z" fill="#14412D"/>
  <path d="M53.4257 32.7986v-5.0581c0-1.3754-.6153-2.6874-1.674-3.5741l-2.3074-2.4793c-.8596-.923-1.3392-2.1083-1.4115-3.3661h-8.198c-.0724 1.2487-.561 2.4431-1.4115 3.3661l-2.3074 2.4793c-1.0768.8867-1.6921 2.1897-1.6921 3.5741v5.0581h19.0019z" fill="#41A550"/>
  <path d="M52.3939 21.9399l-.2443-.2534c-.932-.9953-1.4478-2.3073-1.4478-3.6736V15.606H39.8527v2.4069c0 1.3663-.5158 2.6783-1.4477 3.6736l-.2444.2534h14.2333z" fill="#E8F0FC"/>
  <path d="M49.6796 21.9404l-.2443-.2533c-.8596-.923-1.3392-2.1083-1.4116-3.3661h-8.1979c-.0362.6244-.1719 1.2216-.4072 1.7916l-.0814.1629c-.0996.2172-.2081.4434-.3439.6515-.1719.2715-.3619.5248-.5791.7601l-.2443.2533h11.5097z" fill="#fff"/>
  <path d="M49.6436 11.0822h-8.7228c-1.0858 0-1.9726.8867-1.9726 1.9725v2.5517h12.6679v-2.5517c0-1.0858-.8867-1.9725-1.9725-1.9725z" fill="#DAF7DE"/>
  <path d="M46.929 11.0822h-6.0082c-1.0858 0-1.9726.8867-1.9726 1.9725v2.5517h9.9534v-2.5517c0-1.0858-.8868-1.9725-1.9726-1.9725z" fill="#fff"/>
  <path d="M85.0952 84.3752H1.8492v7.2388h83.246v-7.2388z" fill="#FFDCB4"/>
  <path d="M58.4023 47.2763c1.2493 0 2.2621-1.0128 2.2621-2.2621 0-1.2493-1.0128-2.2621-2.2621-2.2621-1.2494 0-2.2622 1.0128-2.2622 2.2621 0 1.2493 1.0128 2.2621 2.2622 2.2621zM41.2104 47.2763c1.2493 0 2.2621-1.0128 2.2621-2.2621 0-1.2493-1.0128-2.2621-2.2621-2.2621-1.2494 0-2.2622 1.0128-2.2622 2.2621 0 1.2493 1.0128 2.2621 2.2622 2.2621z" fill="#AAA98D"/>
  <path d="M40.7579 46.3715c.9995 0 1.8097-.8103 1.8097-1.8097 0-.9995-.8102-1.8097-1.8097-1.8097-.9994 0-1.8097.8102-1.8097 1.8097 0 .9994.8103 1.8097 1.8097 1.8097zM57.9498 46.3715c.9995 0 1.8097-.8103 1.8097-1.8097 0-.9995-.8102-1.8097-1.8097-1.8097-.9994 0-1.8097.8102-1.8097 1.8097 0 .9994.8103 1.8097 1.8097 1.8097zM20.3445 61.6807l-1.7645-.4163c.1267-.5338.5067-2.1626-.3438-4.2528-.7963-1.9635-2.1988-2.8502-2.805-3.2393l.4343-.7963.4886-.7601c.7329.4615 2.5426 1.6107 3.5561 4.1081.7148 1.7554.8596 3.556.4343 5.3567z" fill="#000"/>
  <path d="M11.8661 85.3246c-3.158-1.0405-6.2344-4.0175-7.827-7.6007-2.1897-4.9224-2.2259-13.5727 3.4113-17.0111 3.3027-2.0179 6.9583-1.2849 9.4376-.3167 1.2396.4795 2.5969.4795 3.8275 0 2.4793-.9682 6.1258-1.7012 9.4376.3167 5.6372 3.4384 5.61 12.0887 3.4112 17.0111-1.493 3.348-4.3704 6.2616-7.3292 7.4198l-.6606-1.683c2.5427-.9954 5.031-3.538 6.334-6.4697 1.873-4.2076 1.9906-11.8626-2.7055-14.731-2.6693-1.6287-5.7368-.9953-7.836-.1719-1.6559.6425-3.4837.6425-5.1486 0-2.0993-.8143-5.1667-1.4477-7.836.1719-4.6962 2.8594-4.5785 10.5234-2.7055 14.731 1.1401 2.5698 3.6737 5.6101 6.7411 6.6144l-.5519 1.7192zM19.0143 57.808l-.2172-.9049c-.0995-.4072-.932-4.0447.2624-6.1982 1.0225-1.8459 2.7689-2.986 5.1939-3.3932l.9772-.181.2443 1.1763c.2534 1.1401.7872 3.5199-.2262 5.6101-1.1944 2.4612-4.9224 3.538-5.3386 3.6556l-.8958.2353zm4.8138-8.569c-.941.2353-2.3436.8144-3.1851 2.3345-.5429.9863-.4433 2.7236-.2714 3.918 1.1401-.4524 2.7236-1.2758 3.2574-2.3797.6153-1.2668.4072-2.805.1991-3.8728z" fill="#000"/>
  <path d="M86.0001 92.5183H.9443v-9.0485h85.0558v9.0485zm-83.246-1.8097h81.4363v-5.4291H2.754v5.4291z" fill="#000"/>
  <path d="M79.6934 84.5825l-2.7416-11.9712V36.4174H21.756v13.5727h-1.8097V34.6077h58.8152v37.9041l2.6874 11.6635-1.7555.4072z" fill="#000"/>
  <path d="M73.7392 35.7201l-1.6377-.7691c5.0581-10.7406 8.8584-29.8329 5.3295-31.4978-3.4565-1.6197-15.2014 12.6317-20.5672 23.517l-1.6197-.7963c4.0809-8.2793 17.1922-27.064 22.956-24.3494C83.964 4.53 77.8563 26.9792 73.7392 35.72z" fill="#000"/>
  <path d="M74.7547 13.3472l-5.2484.5301.1819 1.8005 5.2484-.5302-.1819-1.8004zM72.519 20.2774l-7.2705.5768.1432 1.8041 7.2705-.5768-.1432-1.8041zM69.4336 26.8296l-7.2705.5769.1431 1.8041 7.2705-.5769-.1431-1.8041zM57.0449 35.5125h-1.8097v-7.5917c0-1.7373-.8686-3.357-2.3073-4.3161-1.9545-1.303-3.1217-3.4837-3.1217-5.8272v-2.1626h1.8096v2.1626c0 1.7373.8687 3.3569 2.3074 4.3161 1.9545 1.303 3.1217 3.4746 3.1217 5.8272v7.5917zM35.3285 35.5125h-1.8097v-7.5917c0-2.3435 1.1673-4.5242 3.1217-5.8272 1.4478-.9682 2.3074-2.5788 2.3074-4.3161v-2.1626h1.8097v2.1626c0 2.3435-1.1673 4.5242-3.1217 5.8272-1.4478.9682-2.3074 2.5788-2.3074 4.3161v7.5917z" fill="#000"/>
  <path d="M52.5208 16.5113H38.0432v-3.5922c0-1.5111 1.2306-2.7417 2.7417-2.7417h9.0032c1.5111 0 2.7417 1.2306 2.7417 2.7417v3.5922h-.009zm-12.6679-1.8097h10.8582v-1.7825a.9306.9306 0 00-.932-.932h-9.0032a.9306.9306 0 00-.932.932v1.7825h.009zM23.5838 35.703l-2.9046-13.5636L39.672 18.339l.3619 1.7735-17.2012 3.4384 2.5246 11.7721-1.7735.38z" fill="#000"/>
  <path d="M23.525 7.1938l-1.7274.5398 4.5238 14.4753 1.7274-.5398L23.525 7.1938zM27.1556 0l-1.7511.4568 5.4287 20.8114 1.7511-.4568L27.1556 0zM33.5008.9575l-1.7777.3386 3.6196 19.0033 1.7777-.3386L33.5008.9575zM39.8477 2.8374l-1.7986.1998.905 8.148 1.7987-.1998-.9051-8.148zM20.7921 14.3856l-1.6944.6354 2.713 7.2352 1.6945-.6354-2.7131-7.2352zM52.5208 21.0354H38.0432v1.8097h14.4776v-1.8097z" fill="#000"/>
  <path d="M75.4587 73.5161h-2.8774v-1.8097h2.8774v1.8097zm-5.7548 0h-2.8865v-1.8097h2.8774v1.8097h.0091zm-5.7639 0h-2.8774v-1.8097H63.94v1.8097zm-5.7549 0h-2.8774v-1.8097h2.8774v1.8097zm-5.7548 0h-2.8774v-1.8097h2.8774v1.8097zm-5.7548 0h-2.8774v-1.8097h2.8774v1.8097zm-5.7549 0h-2.8774v-1.8097h2.8774v1.8097zM51.8965 62.6768c-1.9726 0-3.8818-.6153-5.5196-1.7825-2.0631-1.4749-3.4294-3.6737-3.8366-6.1801l-1.4749-8.3337 1.7826-.3167 1.4749 8.3427c.3348 2.0359 1.4387 3.8094 3.1127 5.0129 1.6649 1.1944 3.7008 1.6649 5.7277 1.3392 2.0268-.3348 3.8003-1.4388 5.0038-3.1037 1.1944-1.6739 1.6739-3.7099 1.3391-5.7277l-.9229-5.6281 1.7825-.2896.923 5.6282c.4162 2.5064-.1719 5.0219-1.6559 7.0849-1.4749 2.0631-3.6737 3.4294-6.1801 3.8366-.5067.0724-1.0315.1176-1.5563.1176z" fill="#AAA98D"/>
  <path d="M49.3537 60.8487c-5.2391 0-9.5009-4.2619-9.5009-9.5009v-6.7864h1.8097v6.7864c0 4.2437 3.4475 7.6912 7.6912 7.6912 4.2437 0 7.6912-3.4475 7.6912-7.6912v-6.7864h1.8097v6.7864c0 5.239-4.2618 9.5009-9.5009 9.5009z" fill="#000"/>
</svg>
