<svg fill="none" xmlns="http://www.w3.org/2000/svg" viewBox="0 0 58 69">
  <g clip-path="url(#clip0)">
    <path d="M56.6532 1.4419H.7463V66.241h55.9069V1.4419z" fill="#EAE9DA"/>
    <path d="M44.4404 22.7348l-3.3924-2.0606-3.3924 2.0606v-8.9293h6.7848v8.9293z" fill="#14412D"/>
    <path d="M2.3068 1.7854c-.7667.4396-1.2891 1.2638-1.2891 2.2255v.0412l1.2891-2.2667z" fill="#73C463"/>
    <path d="M54.1156 1.4419h-8.5217l-4.3083 7.5556h6.9273c.5427 0 .977.4464.977.989v46.1027c0 .5495-.441.9891-.977.9891H13.8614l-5.8757 10.303h46.1299c1.3977 0 2.5376-1.1471 2.5376-2.5689V4.0108c0-1.4218-1.1331-2.569-2.5376-2.569z" fill="#88E292"/>
    <path d="M31.2101 63.2601h-4.7494c-.5631 0-1.0177-.4602-1.0177-1.0303s.4546-1.0303 1.0177-1.0303h4.7494c.5631 0 1.0177.4602 1.0177 1.0303s-.4546 1.0303-1.0177 1.0303zM32.5671 34.4116h-18.319c-.5632 0-1.0178-.4602-1.0178-1.0303s.4546-1.0303 1.0178-1.0303h18.319c.5631 0 1.0177.4602 1.0177 1.0303s-.4546 1.0303-1.0177 1.0303zM43.4227 34.4116h-5.4278c-.5631 0-1.0177-.4602-1.0177-1.0303s.4546-1.0303 1.0177-1.0303h5.4278c.5632 0 1.0178.4602 1.0178 1.0303s-.4546 1.0303-1.0178 1.0303zM43.4228 27.5429H14.2481c-.5632 0-1.0178-.4602-1.0178-1.0303s.4546-1.0303 1.0178-1.0303h29.1747c.5631 0 1.0177.4602 1.0177 1.0303s-.4546 1.0303-1.0177 1.0303z" fill="#000"/>
    <path d="M28.4962 15.8661h-.6785c-.5631 0-1.0177-.4602-1.0177-1.0303s.4546-1.0303 1.0177-1.0303h.6785c.5631 0 1.0177.4602 1.0177 1.0303s-.4546 1.0303-1.0177 1.0303zm-4.7494 0h-2.7139c-.5632 0-1.0177-.4602-1.0177-1.0303s.4545-1.0303 1.0177-1.0303h2.7139c.5631 0 1.0177.4602 1.0177 1.0303s-.4546 1.0303-1.0177 1.0303zm-6.7848 0h-2.7139c-.5632 0-1.0178-.4602-1.0178-1.0303s.4546-1.0303 1.0178-1.0303h2.7139c.5631 0 1.0177.4602 1.0177 1.0303s-.4546 1.0303-1.0177 1.0303z" fill="#FF7A45"/>
    <path d="M30.5316 48.8359H14.2481c-.5632 0-1.0178-.4602-1.0178-1.0303s.4546-1.0303 1.0178-1.0303h16.2835c.5632 0 1.0177.4602 1.0177 1.0303s-.4545 1.0303-1.0177 1.0303zM43.4228 41.9672H14.2481c-.5632 0-1.0178-.4602-1.0178-1.0303s.4546-1.0303 1.0178-1.0303h29.1747c.5631 0 1.0177.4602 1.0177 1.0303s-.4546 1.0303-1.0177 1.0303z" fill="#000"/>
    <path d="M57.6709 4.265c0-2.1293-1.703-3.8534-3.8063-3.8534H3.8063C1.703.4116 0 2.1356 0 4.265v60.3003c0 2.1224 1.703 3.8464 3.8063 3.8464h50.0651c2.0965 0 3.8063-1.724 3.8063-3.8533V4.2649h-.0068zM3.8063 67.0379c-1.3502 0-2.4493-1.1127-2.4493-2.4796V4.2649c0-1.3668 1.0991-2.4795 2.4493-2.4795h40.8106l-3.5281 6.1818H9.6955c-1.228 0-2.2322 1.0165-2.2322 2.2598v45.6218c0 1.2432 1.0041 2.2598 2.2322 2.2598h2.7953l-5.0954 8.9293H3.8063zm44.1691-57.697c.4817 0 .8752.3984.8752.8861v45.6218c0 .4877-.3935.8861-.8752.8861h-38.28c-.4816 0-.8751-.3984-.8751-.8861V10.227c0-.4877.3935-.886.8752-.886h38.2799zm8.3385 55.2174c0 1.3669-1.0991 2.4796-2.4493 2.4796H8.9696l5.0953-8.9293h33.9173c1.228 0 2.2322-1.0166 2.2322-2.2598V10.227c0-1.2433-1.0042-2.2598-2.2322-2.2598h-5.3193l3.5281-6.1818h7.6872c1.3366 0 2.4357 1.1127 2.4357 2.4795v60.2934z" fill="#000"/>
  </g>
  <defs>
    <clipPath id="clip0">
      <path fill="#fff" transform="translate(0 .4116)" d="M0 0h57.6709v68H0z"/>
    </clipPath>
  </defs>
</svg>
