<svg fill="none" xmlns="http://www.w3.org/2000/svg" viewBox="0 0 64 69">
  <g clip-path="url(#clip0)">
    <path d="M50.6114 5.7066L40.0293 1.6883c-.3561 4.284-3.931 7.6478-8.296 7.6478-4.3649 0-7.9398-3.3637-8.296-7.6478L12.8552 5.7066C5.6991 8.4223.9714 15.2793.9714 22.9336v10.1559h11.6572v34.35h38.2095v-34.35h11.6572V22.9335c0-7.6542-4.7277-14.5112-11.8839-17.2268z" fill="#EAE9DA"/>
    <path d="M17.8095 67.4394h-5.181V27.9045c2.6423 2.1777 5.181 5.1849 5.181 9.7217v29.8132zM45.6571 67.4394h5.181V27.9045c-2.6423 2.1777-5.181 5.1849-5.181 9.7217v29.8132z" fill="#FFBB96"/>
    <path d="M11.981 27.9045H.9714v4.5368H11.981v-4.5368zM62.4952 27.9045H51.4857v4.5368h11.0095v-4.5368z" fill="#88E292"/>
    <path d="M31.0857 12.998h1.2953c5.848 0 10.7116-4.1933 11.7607-9.7412l-3.795-1.4453c-.2785 1.6592-1.0168 3.1499-2.0854 4.3553-1.5219 1.9314-3.8792 3.1758-6.528 3.1758-2.6487 0-4.9996-1.2444-6.528-3.1758-1.0685-1.199-1.8068-2.6961-2.0853-4.3553l-3.8015 1.4388c1.0556 5.5479 5.9192 9.7477 11.7672 9.7477z" fill="#EAE9DA"/>
    <path d="M17.8095 64.1989h-5.181v3.2405h5.181v-3.2405zM50.8381 64.1989h-5.181v3.2405h5.181v-3.2405z" fill="#FF7A45"/>
    <path d="M51.0389 4.5077L40.3467.457a.6493.6493 0 00-.5764.0583c-.1684.1102-.285.2917-.2979.4926-.3303 3.9988-3.7303 7.1292-7.7391 7.1292-4.0087 0-7.4087-3.1304-7.739-7.1292-.0194-.201-.1295-.3889-.2979-.4926-.1036-.0713-.2267-.1037-.3497-.1037-.0777 0-.1555.013-.2267.0454L12.4278 4.5077C4.9931 7.327 0 14.5664 0 22.5188v10.2466c0 .3565.2914.6481.6476.6481h11.0095v34.35c0 .3565.2915.6481.6477.6481h38.8571c.3562 0 .6476-.2916.6476-.6481v-34.35H62.819c.3562 0 .6477-.2916.6477-.6481V22.5188c0-7.9524-4.9932-15.1918-12.4278-18.0111zM11.6571 32.1173H1.2952v-3.8887h10.3619v3.8887zm5.5048 34.9981h-4.2095V28.8573l.544.5185c1.3665 1.2962 3.6655 4.3683 3.6655 10.3439v27.3957zm33.3524 0h-4.2095V39.7197c0-6.008 2.2925-9.0607 3.6655-10.3504l.544-.512v38.2581zm11.6571-34.9981H51.8095v-3.8887h10.3619v3.8887zm0-4.8997H51.8095v-4.1804c0-.3564-.2914-.6481-.6476-.6481-.3562 0-.6476.2917-.6476.6481v4.297l-.1554.0972c-.8938.5445-5.3494 3.7137-5.3494 12.2883v27.3957H18.4571V39.7197c0-8.581-4.4556-11.7438-5.3493-12.2883l-.1554-.0972v-4.297c0-.3564-.2914-.6481-.6476-.6481-.3562 0-.6477.2917-.6477.6481v4.1804H1.2952v-4.7053c0-7.4144 4.6564-14.1613 11.5924-16.7926l5.9452-2.2555.6087-.2333 3.3676-1.2768.0842.363c.9132 4.1284 4.6305 7.1163 8.84 7.1163 4.2096 0 7.9269-2.9879 8.8465-7.1099l.0842-.3629 3.3676 1.2768.6088.2333 1.496.5639.4468.1685 4.0023 1.5166c6.9295 2.6313 11.5859 9.3782 11.5859 16.7991v4.6988z" fill="#000"/>
  </g>
  <defs>
    <clipPath id="clip0">
      <path fill="#fff" transform="translate(0 .4116)" d="M0 0h63.4667v68H0z"/>
    </clipPath>
  </defs>
</svg>
