<svg fill="none" xmlns="http://www.w3.org/2000/svg" viewBox="0 0 56 69">
  <g clip-path="url(#clip0)">
    <path d="M49.5201 67.3444H15.4296c-2.7556 0-4.9825-2.2547-4.9825-5.0296V6.542c0-2.7817 2.2335-5.0297 4.9825-5.0297h34.0905c2.7555 0 4.9824 2.2547 4.9824 5.0297v55.7728c0 2.7749-2.2335 5.0296-4.9824 5.0296z" fill="#EAE9DA"/>
    <path d="M33.7072 8.8566v3.7955c-.2973 0-9.8723.0134-10.1696-.02 0 0-3.423 2.6549 0 9.3855-4.3018-1.1673-6.6675-3.3886-7.9626-5.3698v35.9545h33.6675V8.8566H33.7072z" fill="#FFBB96"/>
    <path d="M32.7689 28.0946s-3.8062 2.975 0 10.4995c-9.9384-2.715-10.5926-10.4795-10.5926-10.4795H3.2709c-1.5529 0-2.8084-1.2674-2.8084-2.835V4.3739c0-1.5675 1.2555-2.835 2.8084-2.835h38.0024c1.5529 0 2.8084 1.2675 2.8084 2.835v20.899c0 1.5676-1.2555 2.835-2.8084 2.835-.337.0067-8.1806.02-8.5044-.0133z" fill="#88E292"/>
    <path d="M28.8637 17.2282c-2.4053 0-2.4053-3.6689 0-3.6689s2.4053 3.6689 0 3.6689zM22.2227 17.2282c-2.4053 0-2.4053-3.6689 0-3.6689 2.3987 0 2.4053 3.6689 0 3.6689zM17.3922 15.3938c0 2.4281-3.6344 2.4281-3.6344 0-.0066-2.4215 3.6344-2.4281 3.6344 0z" fill="#000"/>
    <path d="M55.8571 7.0822c0-3.6021-2.9009-6.5305-6.4692-6.5305L42.4231.525c-.2973-.0734-.5881-.1134-.8656-.1134H3.489C1.566.4116 0 1.9926 0 3.9336v20.8991c0 1.9411 1.566 3.522 3.489 3.522h5.4846v33.5264c0 3.6021 2.9009 6.5305 6.4692 6.5305h33.9451c3.5683 0 6.4692-2.9284 6.4692-6.5305V7.0822zM33.6412 37.8403c-2.7556-5.4432-1.3216-8.2649-.5749-9.2254l.1982-.2535h8.2996c1.9229 0 3.489-1.5809 3.489-3.5221V9.8772h3.2974v42.7251H16.4869V28.3547h5.3524l.1256.5003c.5683 2.2547 2.7687 7.7312 10.8965 9.9525.2709.0734.522-.0133.7005-.2334.1321-.1668.2246-.447.0793-.7338zM3.489 26.9873c-1.1762 0-2.1344-.9673-2.1344-2.1546V3.9337c0-1.1874.9582-2.1546 2.1344-2.1546h30.7204l8.2336.1934c.7599.3536 1.2555 1.1207 1.2555 1.9612v20.899c0 1.1873-.9582 2.1546-2.1344 2.1546h-.2048c-5.3062.0066-8.0816 0-8.2468-.0201-.2246-.0133-.6674.2068-1.1101.7605-1.1234 1.3941-1.9097 4.2091-.7203 7.9247l.456 1.4341-1.3547-.6203c-6.6344-3.0285-7.2489-8.6118-7.2687-8.8519-.0331-.3536-.3238-.6337-.674-.6337H3.489v.0067zm51.0135 34.8938c0 2.8484-2.2996 5.1697-5.1212 5.1697H15.4428c-2.8216 0-5.1212-2.3213-5.1212-5.1697V28.3547h4.8371v25.5817h34.5002V8.5431h-4.619V3.9337c0-.3802-.0661-.7605-.1916-1.134l-.2974-.8805h4.8304c2.8216 0 5.1212 2.3147 5.1212 5.1697V61.881z" fill="#000"/>
  </g>
  <defs>
    <clipPath id="clip0">
      <path fill="#fff" transform="translate(0 .4116)" d="M0 0h55.8571v68H0z"/>
    </clipPath>
  </defs>
</svg>
