<svg fill="none" xmlns="http://www.w3.org/2000/svg" viewBox="0 0 71 69">
  <g clip-path="url(#clip0)">
    <path d="M66.6474 21.2625H4.5437V67.935h62.1037V21.2625z" fill="#FFBB96"/>
    <path d="M4.5437 29.645c.9869.3677 2.0491.5788 3.1593.5788 2.8921 0 5.462-1.3619 7.1068-3.4797 3.5294 4.2628 10.1153 4.3309 13.7201.0477 3.6322 4.6169 10.6499 4.5624 14.2136-.0953 3.5705 4.3581 10.2112 4.3513 13.7749.0817 2.3438 2.9894 6.3803 4.2559 10.129 2.9008v-8.4165H4.5437v8.3825z" fill="#FF7A45"/>
    <path d="M52.6943 1.4535c3.6939 19.9179 3.6734 19.1416 3.4541 20.449-1.028 7.8787-12.6099 7.8037-13.5625-.0681l-.1508-.9329-2.5357-19.305 12.7949-.143zM18.0856 1.4535c-3.6939 19.9111-3.6733 19.1348-3.454 20.449 1.028 7.8787 12.6099 7.8037 13.5625-.0681.2056-1.287-.1302 1.2121 2.6864-20.238l-12.7949-.143z" fill="#88E292"/>
    <path d="M41.2426 1.5692c1.0486 20.9257.9595 18.8556.9595 19.6523 0 3.7657-3.0977 6.8436-6.8875 6.8436s-6.8875-3.0779-6.8875-6.8436l.9595-19.6523h11.856zM6.442 1.5692L.5277 20.7108c0 4.7871 3.454 7.3611 6.8875 7.3611 3.7898 0 6.8874-3.0779 6.8874-6.8436l4.0023-19.659H6.442zM64.2831 1.5692l5.9211 19.1416c0 9.9283-13.7749 9.4108-13.7749.5107L52.4202 1.5692h11.8629z" fill="#EAE9DA"/>
    <path d="M56.4087 20.35l.0137.0476c0 3.7657 3.0976 6.8436 6.8875 6.8436 3.7898 0 6.8874-3.0779 6.8874-6.8436V20.35H56.4087zM28.6875 20.35l.0137.0476c0 3.7657 3.0977 6.8436 6.8875 6.8436 3.7144 0 6.8874-2.9894 6.8874-6.8912H28.6875zM.9663 20.35l.0137.0476c0 3.7657 3.0977 6.8436 6.8875 6.8436 3.7144 0 6.8875-2.9894 6.8875-6.8912H.9663z" fill="#41A550"/>
    <path d="M42.6338 20.35l.0137.0476c0 3.7657 3.0976 6.8436 6.8875 6.8436 3.7144 0 6.8874-2.9894 6.8874-6.8912H42.6338zM14.5356 20.35l.0138.0476c0 3.7657 3.0976 6.8436 6.8874 6.8436 3.7898 0 6.8875-3.0779 6.8875-6.8436V20.35H14.5356z" fill="#EAE9DA"/>
    <path d="M62.9604.4116H7.5179v1.7228h55.4425V.4116z" fill="#000"/>
    <path d="M20.5665 28.3784c-4.2284-.5039-7.2438-4.3309-6.7367-8.5119l3.4883-18.8147 1.7064.3132c-3.7212 20.0677-3.639 19.0531-3.454 20.1562.8978 6.9321 11.0131 6.8436 11.8424-.0272l.2741-1.9476 1.7064.2929c-.1165.6673-.0753.3541-.2604 1.859-.5071 4.1878-4.3518 7.184-8.5665 6.6801z" fill="#000"/>
    <path d="M27.5225 20.8606l.9594-19.6932 1.7339.0818-.9595 19.6523c.0069 7.6539 12.048 8.2872 12.048-.5584l-.9595-19.094 1.7339-.0885.9594 19.5094c0 3.6431-2.4877 6.8776-5.9074 7.6743-5.0097 1.178-9.6082-2.5876-9.6082-7.4837z" fill="#000"/>
    <path d="M41.4894 21.6983l-.1439-.9057 1.7133-.2724.1507.9329c.3975 3.2754 3.3718 5.6043 6.6408 5.2093 3.3238-.3949 5.6128-3.4184 5.2221-6.5916L51.6047 1.365l1.7064-.3132c3.735 20.1289 3.7076 19.2573 3.4609 20.7486-1.1513 8.8183-14.2067 8.7979-15.2826-.1021z" fill="#000"/>
    <path d="M69.8889 20.2069H.5894v1.7228h69.2995v-1.7228z" fill="#000"/>
    <path d="M5.9211 28.249c-4.153-1.0078-6.7093-5.1821-5.7018-9.3086L6.2638.4116h58.0946l6.0239 18.4675c1.028 4.1878-1.5282 8.3689-5.6813 9.3699-4.1325.9942-8.3198-1.5117-9.3546-5.6043l-.2399-.606 1.6105-.6333.3016.7763c.7881 3.2073 4.0502 5.1752 7.2781 4.399 3.2278-.7831 5.2084-4.0245 4.4272-7.2318L63.1042 2.1344H7.5248L1.8846 19.4102c-.7676 3.146 1.2198 6.3874 4.4409 7.1705 3.2347.7831 6.4899-1.1917 7.2781-4.399.0548-.1702.2261-.5924.3015-.7763l1.6105.6333-.2399.606c-1.0348 4.0926-5.2152 6.6053-9.3546 5.6043z" fill="#000"/>
    <path d="M67.2916 68.4117H3.1868V26.2334h1.7338v40.4554h60.6372V26.2334h1.7338v42.1783z" fill="#000"/>
    <path d="M49.1033 40.9487H21.3752v26.6049h27.7281V40.9487z" fill="#EAE9DA"/>
    <path d="M49.9668 68.4116H20.5117V40.084h29.4619v28.3276h-.0068zm-27.7212-1.7228h25.9942v-24.882H22.2456v24.882z" fill="#000"/>
  </g>
  <defs>
    <clipPath id="clip0">
      <path fill="#fff" transform="translate(0 .4116)" d="M0 0h70.6154v68H0z"/>
    </clipPath>
  </defs>
</svg>
